<svg width="180" height="49" viewBox="0 0 180 49" fill="none" xmlns="http://www.w3.org/2000/svg">
<path d="M4.9069 43.8639C4.85498 43.8903 4.7771 43.9431 4.72518 43.9695C4.28384 43.9431 3.8425 43.9167 3.42712 43.8903C3.42712 45.2365 3.42712 46.6092 3.42712 47.9554C3.92038 47.9818 4.41364 48.0082 4.93286 48.0346C4.93286 47.6915 4.93286 47.3483 4.93286 47.0051C5.42612 47.0315 5.91938 47.0579 6.4386 47.0843C6.4386 46.7412 6.4386 46.398 6.4386 46.0548C5.94534 46.0284 5.45208 46.002 4.93286 45.9756C4.93286 45.3421 4.93286 44.7086 4.93286 44.075C4.98478 44.0486 5.06267 43.9958 5.11459 43.9695C6.04919 44.0222 6.98378 44.075 7.91838 44.1014C7.91838 43.7583 7.91838 43.4151 7.91838 43.0719C6.93186 43.0191 5.91938 42.9664 4.93286 42.9136C4.9069 43.2831 4.9069 43.5735 4.9069 43.8639Z" fill="black"/>
<path d="M9.37183 43.2039C9.37183 44.5502 9.37183 45.9228 9.37183 47.2691C9.81316 47.2955 10.2545 47.2955 10.6699 47.3219C10.7218 47.3747 10.7997 47.4011 10.8516 47.4539C10.8516 47.7442 10.8516 48.061 10.8516 48.3514C11.8381 48.3778 12.8506 48.4306 13.8371 48.457C13.8371 46.7675 13.8371 45.0517 13.8371 43.3623C13.3439 43.3359 12.8506 43.3359 12.3314 43.3095C12.3314 44.6557 12.3314 46.0284 12.3314 47.3747C11.89 47.3483 11.4747 47.3483 11.0333 47.3219C10.9814 47.2691 10.9035 47.2427 10.8516 47.1899C10.8516 45.87 10.8516 44.5502 10.8516 43.2567C10.3843 43.2303 9.86509 43.2303 9.37183 43.2039Z" fill="black"/>
<path d="M18.3282 48.5362C18.3282 47.1899 18.3282 45.8173 18.3282 44.471C18.8214 44.471 19.3147 44.4974 19.8339 44.4974C19.8339 44.1542 19.8339 43.8111 19.8339 43.4679C18.3282 43.4415 16.8484 43.4151 15.3427 43.3887C15.3427 43.7319 15.3427 44.075 15.3427 44.4182C15.8359 44.4182 16.3292 44.4446 16.8484 44.4446C16.8484 45.7909 16.8484 47.1635 16.8484 48.5098C17.3416 48.5098 17.8349 48.5362 18.3282 48.5362Z" fill="black"/>
<path d="M21.3142 43.4679C21.3142 44.8141 21.3142 46.1868 21.3142 47.5331C21.7555 47.5331 22.1969 47.5331 22.6123 47.5331C22.6642 47.5859 22.7421 47.6123 22.794 47.6651C22.794 47.9554 22.794 48.2722 22.794 48.5626C23.7805 48.5626 24.793 48.5626 25.7795 48.5626C25.7795 46.8731 25.7795 45.1573 25.7795 43.4679C25.2862 43.4679 24.793 43.4679 24.2738 43.4679C24.2738 44.8141 24.2738 46.1868 24.2738 47.5331C23.8324 47.5331 23.4171 47.5331 22.9757 47.5331C22.9238 47.4803 22.8459 47.4539 22.794 47.4011C22.794 46.0812 22.794 44.7613 22.794 43.4679C22.3007 43.4943 21.8075 43.4679 21.3142 43.4679Z" fill="black"/>
<path d="M28.7909 43.4679C28.7909 43.7583 28.7909 44.0486 28.7909 44.3654C28.739 44.4182 28.6611 44.4446 28.6092 44.4974C28.1679 44.4974 27.7265 44.4974 27.3112 44.4974C27.3112 45.8437 27.3112 47.2163 27.3112 48.5626C27.8044 48.5626 28.2977 48.5626 28.8169 48.5362C28.8169 48.193 28.8169 47.8499 28.8169 47.5067C29.2582 47.5067 29.6996 47.5067 30.1149 47.4803C30.1669 47.5331 30.2448 47.5595 30.2967 47.6123C30.2967 47.9026 30.2967 48.2194 30.2967 48.5098C30.7899 48.5098 31.2832 48.4834 31.8024 48.4834C31.8024 48.1402 31.8024 47.7971 31.8024 47.4539C31.3611 47.4539 30.9457 47.4803 30.5044 47.4803C30.4524 47.4275 30.3746 47.4011 30.3226 47.3483C30.3226 47.0843 30.3226 46.8468 30.3226 46.5828C30.3746 46.53 30.4524 46.5036 30.5044 46.4508C30.9457 46.4508 31.3611 46.4244 31.8024 46.4244C31.8024 45.7381 31.8024 45.0781 31.8024 44.3918C31.3611 44.3918 30.9457 44.4182 30.5044 44.4182C30.4524 44.3654 30.3746 44.339 30.3226 44.2862C30.3226 43.9958 30.3226 43.7055 30.3226 43.3887C29.7775 43.4415 29.2842 43.4415 28.7909 43.4679ZM30.2707 46.3716C30.2188 46.4244 30.1409 46.4508 30.089 46.5036C29.6476 46.5036 29.2063 46.5036 28.7909 46.53C28.7909 45.8965 28.7909 45.2629 28.7909 44.6294C28.8429 44.5766 28.9207 44.5502 28.9727 44.4974C29.3361 44.4974 29.7255 44.4974 30.089 44.471C30.1409 44.5238 30.2188 44.5502 30.2707 44.603C30.2707 45.1837 30.2707 45.7645 30.2707 46.3716Z" fill="black"/>
<path d="M34.7356 47.5331C34.7356 47.8234 34.7356 48.1402 34.7356 48.4306C35.7222 48.4042 36.7346 48.3778 37.7212 48.3514C37.7212 48.0082 37.7212 47.665 37.7212 47.3219C36.7866 47.3483 35.852 47.3747 34.9174 47.4011C34.8654 47.3483 34.7876 47.3219 34.7356 47.2691C34.7356 46.9787 34.7356 46.6883 34.7356 46.3716C35.2289 46.3716 35.7222 46.3452 36.2414 46.3188C36.2414 45.9756 36.2414 45.6324 36.2414 45.2893C35.7481 45.3157 35.2549 45.3157 34.7356 45.3421C34.7356 45.0517 34.7356 44.7349 34.7356 44.4446C34.7876 44.3918 34.8654 44.3654 34.9174 44.3126C35.852 44.2862 36.7866 44.2598 37.7212 44.2334C37.7212 43.8902 37.7212 43.5471 37.7212 43.2039C36.7346 43.2303 35.7222 43.2567 34.7356 43.2831C34.7356 43.5735 34.7356 43.8638 34.7356 44.1806C34.6837 44.2334 34.6058 44.2598 34.5539 44.3126C34.1126 44.3126 33.6712 44.339 33.2559 44.339C33.2559 45.3685 33.2559 46.3716 33.2559 47.4011C33.6972 47.4011 34.1385 47.3747 34.5539 47.3747C34.6318 47.4539 34.6837 47.5067 34.7356 47.5331Z" fill="black"/>
<path d="M47.4047 43.9166C46.9114 43.943 46.4181 43.9694 45.8989 43.9958C45.8989 43.6527 45.8989 43.3095 45.8989 42.9663C45.4057 42.9927 44.9124 43.0191 44.3932 43.0455C44.3932 44.735 44.3932 46.4508 44.3932 48.1402C44.8864 48.1138 45.3797 48.0874 45.8989 48.061C45.8989 47.3747 45.8989 46.7148 45.8989 46.0284C46.3922 46.002 46.8855 45.9756 47.4047 45.9492C47.4047 46.6356 47.4047 47.2955 47.4047 47.9818C47.8979 47.9554 48.3912 47.929 48.9104 47.9026C48.9104 46.2132 48.9104 44.4974 48.9104 42.8079C48.4172 42.8343 47.9239 42.8607 47.4047 42.8871C47.4047 43.2303 47.4047 43.5735 47.4047 43.9166Z" fill="black"/>
<path d="M51.8959 43.5471C51.844 43.5999 51.7661 43.6527 51.7142 43.6791C51.2729 43.7055 50.8315 43.7319 50.4161 43.7583C50.4161 44.7878 50.4161 45.7909 50.4161 46.8204C50.8575 46.794 51.2988 46.7676 51.7142 46.7412C51.7661 46.7676 51.844 46.8204 51.8959 46.8468C51.8959 47.1371 51.8959 47.4539 51.8959 47.7443C52.8824 47.6915 53.8949 47.6387 54.8814 47.5859C54.8814 47.2427 54.8814 46.8996 54.8814 46.5564C53.9468 46.6092 53.0122 46.662 52.0777 46.7148C52.0257 46.6884 51.9478 46.6356 51.8959 46.6092C51.8959 46.3188 51.8959 46.0284 51.8959 45.7117C52.3892 45.6853 52.8824 45.6589 53.4017 45.6325C53.4017 45.2893 53.4017 44.9461 53.4017 44.603C52.9084 44.6294 52.4151 44.6558 51.8959 44.6822C51.8959 44.3918 51.8959 44.075 51.8959 43.7847C51.9478 43.7319 52.0257 43.7055 52.0777 43.6527C53.0122 43.5999 53.9468 43.5471 54.8814 43.4943C54.8814 43.1511 54.8814 42.8079 54.8814 42.4648C53.8949 42.5176 52.8824 42.5704 51.8959 42.6232C51.8959 42.9663 51.8959 43.2567 51.8959 43.5471Z" fill="black"/>
<path d="M59.3471 43.0983C59.3471 42.808 59.3471 42.5176 59.3471 42.2008C58.8538 42.2272 58.3606 42.2536 57.8414 42.3064C57.8414 42.5968 57.8414 42.8872 57.8414 43.2039C57.7894 43.2567 57.7116 43.3095 57.6596 43.3359C57.2183 43.3623 56.777 43.3887 56.3616 43.4151C56.3616 44.7614 56.3616 46.134 56.3616 47.4803C57.3481 47.4275 58.3606 47.3483 59.3471 47.2955C59.3471 47.0052 59.3471 46.6884 59.3471 46.398C59.399 46.3452 59.4769 46.3188 59.5288 46.266C59.9702 46.2396 60.3855 46.2132 60.8269 46.1868C60.8269 45.1573 60.8269 44.1542 60.8269 43.1247C60.3855 43.1511 59.9702 43.1775 59.5288 43.2039C59.4769 43.1775 59.425 43.1247 59.3471 43.0983ZM59.3471 46.1604C59.2952 46.2132 59.2173 46.266 59.1654 46.2924C58.724 46.3188 58.2827 46.3452 57.8673 46.3716C57.8673 45.3949 57.8673 44.4182 57.8673 43.4415C57.9192 43.3887 57.9971 43.3623 58.049 43.3095C58.4125 43.2831 58.8019 43.2567 59.1654 43.2303C59.2173 43.2567 59.2952 43.3095 59.3471 43.3359C59.3471 44.2862 59.3471 45.2101 59.3471 46.1604Z" fill="black"/>
<path d="M62.3585 43.0191C62.8518 42.9927 63.345 42.9399 63.8643 42.9135C63.8643 43.943 63.8643 44.9461 63.8643 45.9756C63.371 46.002 62.8777 46.0548 62.3585 46.0812C62.3585 46.4244 62.3585 46.7676 62.3585 47.1107C63.8643 47.0051 65.344 46.8995 66.8498 46.794C66.8498 46.4508 66.8498 46.1076 66.8498 45.7645C66.3565 45.7909 65.8633 45.8437 65.344 45.8701C65.344 44.8406 65.344 43.8375 65.344 42.808C65.8373 42.7816 66.3306 42.7288 66.8498 42.7024C66.8498 42.3592 66.8498 42.016 66.8498 41.6729C65.344 41.7785 63.8643 41.884 62.3585 41.9896C62.3585 42.3592 62.3585 42.7024 62.3585 43.0191Z" fill="black"/>
<path d="M71.2887 42.2536C71.2887 41.9632 71.2887 41.6728 71.2887 41.3561C70.7955 41.3825 70.3022 41.4353 69.783 41.4617C69.783 41.752 69.783 42.0424 69.783 42.3592C69.7311 42.412 69.6532 42.4648 69.6013 42.4912C69.1599 42.5176 68.7186 42.544 68.3032 42.5968C68.3032 43.943 68.3032 45.3157 68.3032 46.662C68.7965 46.6356 69.2897 46.5828 69.8089 46.5564C69.8089 46.2132 69.8089 45.87 69.8089 45.5269C70.3022 45.5005 70.7955 45.4477 71.3147 45.4213C71.3147 45.7644 71.3147 46.1076 71.3147 46.4508C71.8079 46.4244 72.3012 46.3716 72.8204 46.3452C72.8204 44.9989 72.8204 43.6263 72.8204 42.28C72.3791 42.3064 71.9637 42.3328 71.5224 42.3856C71.4185 42.3328 71.3666 42.3064 71.2887 42.2536ZM71.2887 44.4182C70.7955 44.4446 70.3022 44.4974 69.783 44.5238C69.783 43.8902 69.783 43.2567 69.783 42.6232C69.8349 42.5704 69.9128 42.5176 69.9647 42.4912C70.3282 42.4648 70.7176 42.4384 71.081 42.412C71.1329 42.4384 71.2108 42.4912 71.2628 42.5176C71.2887 43.1511 71.2887 43.7846 71.2887 44.4182Z" fill="black"/>
<path d="M82.0108 41.4353C82.0108 41.1449 82.0108 40.8546 82.0108 40.5378C81.5175 40.5906 81.0243 40.617 80.505 40.6434C80.505 40.9338 80.505 41.2241 80.505 41.5409C80.4531 41.5937 80.3752 41.6465 80.3233 41.6729C79.882 41.6993 79.4406 41.7521 79.0253 41.7785C79.0253 43.1248 79.0253 44.4974 79.0253 45.8437C79.5185 45.8173 80.0118 45.7645 80.531 45.7381C80.531 45.3949 80.531 45.0518 80.531 44.7086C81.0243 44.6822 81.5175 44.6294 82.0367 44.603C82.0367 44.9462 82.0367 45.2893 82.0367 45.6325C82.53 45.6061 83.0233 45.5533 83.5425 45.5005C83.5425 44.1542 83.5425 42.7816 83.5425 41.4353C83.1011 41.4617 82.6858 41.5145 82.2444 41.5409C82.1406 41.4881 82.0887 41.4617 82.0108 41.4353ZM82.0108 43.5999C81.5175 43.6263 81.0243 43.6791 80.505 43.7055C80.505 43.072 80.505 42.4384 80.505 41.8049C80.557 41.7521 80.6348 41.6993 80.6868 41.6729C81.0502 41.6465 81.4396 41.6201 81.8031 41.5937C81.855 41.6201 81.9329 41.6729 81.9848 41.6993C82.0108 42.3064 82.0108 42.94 82.0108 43.5999Z" fill="black"/>
<path d="M88.0077 40.9337C88.0077 40.6434 88.0077 40.353 88.0077 40.0362C87.5145 40.089 87.0212 40.1154 86.502 40.1682C86.502 40.4586 86.502 40.749 86.502 41.0657C86.4501 41.1185 86.3722 41.1713 86.3203 41.1977C85.8789 41.2241 85.4376 41.2769 85.0222 41.3033C85.0222 42.6496 85.0222 44.0222 85.0222 45.3685C85.5155 45.3157 86.0087 45.2893 86.528 45.2365C86.528 44.8933 86.528 44.5502 86.528 44.207C86.9693 44.1806 87.4106 44.1278 87.826 44.1014C87.8779 44.1278 87.9558 44.1806 88.0077 44.207C88.0077 44.4974 88.0077 44.8141 88.0077 45.1045C88.501 45.0517 88.9942 45.0253 89.5135 44.9725C89.5135 44.6294 89.5135 44.2862 89.5135 43.943C89.0721 43.9694 88.6567 44.0222 88.2154 44.0486C88.1635 44.0222 88.0856 43.9694 88.0337 43.943C88.0337 43.6791 88.0337 43.4415 88.0337 43.1775C88.0856 43.1247 88.1635 43.0719 88.2154 43.0455C88.6567 43.0191 89.0721 42.9663 89.5135 42.9399C89.5135 42.2536 89.5135 41.5937 89.5135 40.9073C89.0721 40.9337 88.6567 40.9865 88.2154 41.0129C88.1116 41.0129 88.0597 40.9865 88.0077 40.9337ZM88.0077 42.9927C87.9558 43.0455 87.8779 43.0983 87.826 43.1247C87.3847 43.1511 86.9433 43.2039 86.528 43.2303C86.528 42.5968 86.528 41.9632 86.528 41.3297C86.5799 41.2769 86.6578 41.2241 86.7097 41.1977C87.0731 41.1713 87.4625 41.1449 87.826 41.1185C87.8779 41.1449 87.9558 41.1977 88.0077 41.2241C88.0077 41.8048 88.0077 42.3856 88.0077 42.9927Z" fill="black"/>
<path d="M90.9677 40.8282C91.4609 40.7754 91.9542 40.749 92.4734 40.7226C92.4734 42.0688 92.4734 43.4415 92.4734 44.7878C92.9667 44.7614 93.4599 44.7086 93.9791 44.6822C93.9791 43.3359 93.9791 41.9633 93.9791 40.617C94.4724 40.5906 94.9657 40.5378 95.4849 40.5114C95.4849 40.1682 95.4849 39.8251 95.4849 39.4819C93.9791 39.5875 92.4994 39.7195 90.9936 39.8251C90.9677 40.1682 90.9677 40.5114 90.9677 40.8282Z" fill="black"/>
<path d="M98.4442 40.1154C98.3923 40.1682 98.3144 40.221 98.2625 40.2474C97.8211 40.2738 97.3798 40.3266 96.9644 40.353C96.9644 40.6962 96.9644 41.0393 96.9644 41.3825C97.4058 41.3561 97.8471 41.3033 98.2625 41.2769C98.3144 41.3033 98.3923 41.3561 98.4442 41.3825C98.4442 41.6729 98.4442 41.9896 98.4442 42.28C98.8855 42.2536 99.3269 42.2008 99.7423 42.1744C99.7942 42.2008 99.8721 42.2536 99.924 42.28C99.924 42.544 99.924 42.7815 99.924 43.0455C99.8721 43.0983 99.7942 43.1511 99.7423 43.1775C98.8077 43.2567 97.8731 43.3095 96.9385 43.3887C96.9385 43.7318 96.9385 44.075 96.9385 44.4182C97.925 44.339 98.9375 44.2598 99.924 44.1806C99.924 43.8902 99.924 43.5735 99.924 43.2831C99.9759 43.2303 100.054 43.1775 100.106 43.1511C100.547 43.1247 100.962 43.0719 101.404 43.0455C101.404 42.7024 101.404 42.3592 101.404 42.016C100.962 42.0424 100.547 42.0688 100.106 42.1216C100.054 42.0952 99.9759 42.0424 99.924 42.016C99.924 41.7256 99.924 41.4353 99.924 41.1185C99.4826 41.1449 99.0673 41.1977 98.6259 41.2241C98.574 41.1977 98.4961 41.1449 98.4442 41.1185C98.4442 40.8545 98.4442 40.617 98.4442 40.353C98.4961 40.3002 98.574 40.2474 98.6259 40.221C99.5605 40.1418 100.495 40.089 101.43 40.0098C101.43 39.6667 101.43 39.3235 101.43 38.9803C100.443 39.0595 99.4307 39.1387 98.4442 39.2179C98.4442 39.5347 98.4442 39.825 98.4442 40.1154Z" fill="black"/>
<path d="M107.92 39.4027C107.868 39.4555 107.79 39.5083 107.738 39.5347C107.297 39.5611 106.855 39.5875 106.44 39.6403C106.44 40.9866 106.44 42.3592 106.44 43.7055C106.933 43.6791 107.427 43.6263 107.946 43.5999C107.946 43.2567 107.946 42.9136 107.946 42.5704C108.439 42.544 108.932 42.4912 109.452 42.4648C109.452 42.1217 109.452 41.7785 109.452 41.4353C108.958 41.4617 108.465 41.5145 107.946 41.5409C107.946 40.9074 107.946 40.2738 107.946 39.6403C107.998 39.5875 108.076 39.5347 108.128 39.5083C109.062 39.4291 109.997 39.3763 110.931 39.3235C110.931 38.9804 110.931 38.6372 110.931 38.294C109.945 38.3732 108.932 38.426 107.946 38.5052C107.92 38.822 107.92 39.1124 107.92 39.4027Z" fill="black"/>
<path d="M113.891 39.0068C113.839 39.0596 113.761 39.1123 113.709 39.1387C113.268 39.1651 112.826 39.1915 112.411 39.2179C112.411 40.2474 112.411 41.2505 112.411 42.28C112.852 42.2536 113.294 42.2272 113.709 42.2008C113.761 42.2272 113.839 42.28 113.891 42.3064C113.891 42.5968 113.891 42.9136 113.891 43.2039C114.877 43.1511 115.89 43.0719 116.876 43.0192C116.876 42.676 116.876 42.3328 116.876 41.9897C115.942 42.0425 115.007 42.0952 114.072 42.1744C114.02 42.148 113.943 42.0952 113.891 42.0688C113.891 41.7785 113.891 41.4881 113.891 41.1713C114.384 41.1449 114.877 41.1185 115.396 41.0658C115.396 40.7226 115.396 40.3794 115.396 40.0363C114.903 40.0627 114.41 40.0891 113.891 40.1418C113.891 39.8515 113.891 39.5347 113.891 39.2443C113.943 39.1915 114.02 39.1651 114.072 39.1123C115.007 39.0596 115.942 38.9804 116.876 38.9276C116.876 38.5844 116.876 38.2412 116.876 37.8981C115.89 37.9509 114.877 38.0301 113.891 38.0829C113.891 38.426 113.891 38.7164 113.891 39.0068Z" fill="black"/>
<path d="M119.862 38.6371C119.81 38.6899 119.732 38.7427 119.68 38.7691C119.239 38.7955 118.798 38.8219 118.382 38.8483C118.382 39.1915 118.382 39.5346 118.382 39.8778C118.824 39.8514 119.265 39.825 119.68 39.7986C119.732 39.825 119.81 39.8778 119.862 39.9042C119.862 40.1946 119.862 40.5113 119.862 40.8017C120.303 40.7753 120.745 40.7489 121.16 40.7225C121.212 40.7489 121.29 40.8017 121.342 40.8281C121.342 41.0921 121.342 41.3297 121.342 41.5936C121.29 41.6464 121.212 41.6992 121.16 41.7256C120.226 41.7784 119.291 41.8312 118.356 41.884C118.356 42.2272 118.356 42.5703 118.356 42.9135C119.343 42.8607 120.355 42.8079 121.342 42.7287C121.342 42.4384 121.342 42.1216 121.342 41.8312C121.394 41.7784 121.472 41.752 121.524 41.6992C121.965 41.6728 122.38 41.6464 122.822 41.62C122.822 41.2769 122.822 40.9337 122.822 40.5905C122.38 40.6169 121.965 40.6433 121.524 40.6697C121.472 40.6433 121.394 40.5905 121.342 40.5641C121.342 40.2738 121.342 39.9834 121.342 39.6666C120.9 39.693 120.485 39.7194 120.044 39.7458C119.992 39.7194 119.914 39.6666 119.862 39.6402C119.862 39.3763 119.862 39.1387 119.862 38.8747C119.914 38.8219 119.992 38.7955 120.044 38.7427C120.978 38.6899 121.913 38.6371 122.848 38.5843C122.848 38.2412 122.848 37.898 122.848 37.5548C121.861 37.6076 120.849 37.6604 119.862 37.7132C119.862 38.0564 119.862 38.3468 119.862 38.6371Z" fill="black"/>
<path d="M124.353 38.5316C124.847 38.5052 125.34 38.4788 125.859 38.4524C125.859 39.7986 125.859 41.1713 125.859 42.5176C126.352 42.4912 126.846 42.4648 127.365 42.4384C127.365 41.0921 127.365 39.7194 127.365 38.3732C127.858 38.3468 128.351 38.3204 128.87 38.294C128.87 37.9508 128.87 37.6077 128.87 37.2645C127.365 37.3437 125.885 37.3965 124.379 37.4757C124.353 37.8452 124.353 38.1884 124.353 38.5316Z" fill="black"/>
<path d="M130.324 38.2412C130.817 38.2148 131.311 38.1884 131.83 38.1884C131.83 39.2179 131.83 40.221 131.83 41.2505C131.337 41.2769 130.843 41.3033 130.324 41.3033C130.324 41.6465 130.324 41.9896 130.324 42.3328C131.83 42.28 133.31 42.2008 134.815 42.1744C134.815 41.8313 134.815 41.4881 134.815 41.1449C134.322 41.1713 133.829 41.1713 133.31 41.1977C133.31 40.1682 133.31 39.1651 133.31 38.1356C133.803 38.1092 134.296 38.1092 134.815 38.0828C134.815 37.7397 134.815 37.3965 134.815 37.0533C133.31 37.1061 131.83 37.1589 130.324 37.2117C130.324 37.5549 130.324 37.8981 130.324 38.2412Z" fill="black"/>
<path d="M139.28 40.8546C139.228 40.9074 139.151 40.9338 139.099 40.9866C138.735 40.9866 138.346 41.0129 137.982 41.0129C137.93 40.9602 137.853 40.9338 137.801 40.881C137.801 39.5611 137.801 38.2412 137.801 36.9478C137.307 36.9742 136.814 36.9742 136.295 37.0005C136.295 38.3468 136.295 39.7195 136.295 41.0657C136.736 41.0393 137.178 41.0393 137.593 41.0393C137.645 41.0921 137.723 41.1185 137.775 41.1713C137.775 41.4617 137.775 41.7785 137.775 42.0688C138.268 42.0424 138.761 42.0424 139.28 42.0424C139.28 41.7521 139.28 41.4353 139.28 41.1449C139.332 41.0921 139.41 41.0657 139.462 41.0129C139.903 41.0129 140.319 40.9866 140.76 40.9866C140.76 39.6403 140.76 38.2676 140.76 36.9214C140.267 36.9214 139.774 36.9478 139.254 36.9478C139.28 38.2412 139.28 39.5611 139.28 40.8546Z" fill="black"/>
<path d="M145.252 37.7132C145.252 37.4229 145.252 37.1325 145.252 36.8157C144.759 36.8157 144.265 36.8157 143.746 36.8421C143.746 37.1325 143.746 37.4229 143.746 37.7396C143.694 37.7924 143.616 37.8188 143.565 37.8716C143.123 37.8716 142.682 37.898 142.266 37.898C142.266 39.2443 142.266 40.617 142.266 41.9632C142.76 41.9632 143.253 41.9368 143.772 41.9368C143.772 41.5937 143.772 41.2505 143.772 40.9073C144.265 40.9073 144.759 40.8809 145.278 40.8809C145.278 41.2241 145.278 41.5673 145.278 41.9104C145.771 41.9104 146.265 41.9104 146.784 41.884C146.784 40.5378 146.784 39.1651 146.784 37.8188C146.342 37.8188 145.927 37.8188 145.486 37.8188C145.356 37.7924 145.304 37.7396 145.252 37.7132ZM145.252 39.8778C144.759 39.8778 144.265 39.8778 143.746 39.9042C143.746 39.2707 143.746 38.6372 143.746 38.0036C143.798 37.9508 143.876 37.9244 143.928 37.8716C144.291 37.8716 144.681 37.8716 145.044 37.8452C145.096 37.898 145.174 37.9244 145.226 37.9772C145.252 38.5844 145.252 39.2443 145.252 39.8778Z" fill="black"/>
<path d="M149.717 40.7226C149.717 39.4027 149.717 38.0828 149.717 36.7894C149.224 36.7894 148.73 36.7894 148.211 36.7894C148.211 38.1356 148.211 39.5083 148.211 40.8546C148.653 40.8546 149.094 40.8546 149.509 40.8546C149.561 40.9074 149.639 40.9338 149.691 40.9866C149.691 41.2769 149.691 41.5937 149.691 41.8841C150.677 41.8841 151.69 41.8841 152.676 41.8841C152.676 41.5409 152.676 41.1977 152.676 40.8546C151.742 40.8546 150.807 40.8546 149.873 40.8546C149.847 40.8282 149.795 40.7754 149.717 40.7226Z" fill="black"/>
<path d="M172.407 23.4851C172.407 22.9043 172.407 22.35 172.407 21.7693C171.784 21.7165 171.161 21.6901 170.538 21.6373C170.512 21.6373 170.486 21.6373 170.46 21.6373C169.369 21.5581 168.253 21.5053 167.137 21.4525C167.137 23.1947 167.137 24.9105 167.137 26.6528C167.5 26.6792 167.838 26.6792 168.201 26.7056C168.201 27.6559 168.201 28.6062 168.201 29.5565C167.838 29.5301 167.5 29.5301 167.137 29.5037C167.137 30.0052 167.137 30.4804 167.137 30.9819C168.253 31.0347 169.395 31.1139 170.512 31.1667C170.512 28.5534 170.512 25.9664 170.512 23.3531C171.161 23.4059 171.784 23.4587 172.407 23.4851Z" fill="black"/>
<path d="M88.0595 20.7926C88.0595 18.76 88.0595 16.7538 88.0595 14.7212C85.6451 14.9059 83.2048 15.1171 80.7904 15.3019C80.7904 16.0674 80.7904 16.8593 80.7904 17.6249C80.427 17.6513 80.0635 17.6777 79.7001 17.7041C79.7001 18.9447 79.7001 20.1854 79.7001 21.4261C79.2328 21.4525 78.7395 21.5053 78.2722 21.5317C78.2722 22.6668 78.2722 23.8283 78.2722 24.9633C78.7914 24.9105 79.2847 24.8841 79.8039 24.8314C79.8039 25.7025 79.8039 26.5736 79.8039 27.4447C80.2972 27.4183 80.7904 27.3655 81.3096 27.3391C81.3096 28.4478 81.3096 29.5301 81.3096 30.6388C80.8164 30.6916 80.3231 30.718 79.8039 30.7444C79.8039 32.0378 79.8039 33.3049 79.8039 34.5984C80.7904 34.5192 81.8029 34.44 82.7894 34.3608C82.7894 33.1729 82.7894 32.0114 82.7894 30.8236C83.4904 30.7708 84.1913 30.718 84.8923 30.6652C84.8923 31.0083 84.8923 31.3515 84.8923 31.6947C84.8923 31.8531 84.8144 31.9586 84.6586 31.9586C84.1913 31.985 83.8279 32.0114 83.5683 32.0378C84.0096 32.8034 84.2692 33.5425 84.373 34.2288C85.6451 34.1232 86.5278 33.912 87.047 33.5953C87.4105 33.3841 87.6441 33.1201 87.7739 32.8034C87.9037 32.4866 87.9557 32.0378 87.9557 31.4835C87.9557 29.0549 87.9557 26.6 87.9557 24.1714C88.5008 24.1186 89.0201 24.0922 89.5652 24.0394C89.5652 24.3298 89.5652 24.5938 89.5652 24.8841C93.4853 24.5674 97.4314 24.2506 101.352 23.9602C101.352 23.3003 101.352 22.6404 101.352 21.9804C97.4574 22.2708 93.5373 22.5876 89.6431 22.9043C89.6431 22.1388 89.6431 21.3733 89.6431 20.6078C89.0979 20.7134 88.5787 20.7398 88.0595 20.7926ZM82.2442 17.3081C83.2827 17.2289 84.3471 17.1497 85.3855 17.0705C85.3855 17.2553 85.3855 17.4401 85.3855 17.6249C84.5288 17.7041 83.6721 17.7569 82.8413 17.836C82.8413 18.9711 82.8413 20.1062 82.8413 21.2149C82.6337 21.2413 82.4519 21.2413 82.2442 21.2677C82.2442 19.9478 82.2442 18.628 82.2442 17.3081ZM85.3855 19.2351C85.3855 19.8159 85.3855 20.3966 85.3855 20.9773C85.1519 21.0037 84.9182 21.0037 84.6846 21.0301C84.6846 20.4494 84.6846 19.8686 84.6846 19.2879C84.9182 19.2879 85.1519 19.2615 85.3855 19.2351ZM84.8923 28.7382C84.1913 28.791 83.4904 28.8438 82.7894 28.8965C82.7894 28.6854 82.7894 28.4742 82.7894 28.263C83.4904 28.2102 84.1913 28.1574 84.8923 28.1046C84.8923 28.3158 84.8923 28.527 84.8923 28.7382ZM84.8923 26.1776C84.1913 26.2304 83.4904 26.2832 82.7894 26.336C82.7894 26.1248 82.7894 25.94 82.7894 25.7289C83.4904 25.6761 84.1913 25.6233 84.8923 25.5705C84.8923 25.7817 84.8923 25.9664 84.8923 26.1776ZM86.9172 23.4323C84.8663 23.5907 82.8154 23.7491 80.7904 23.9338C80.7904 23.7491 80.7904 23.5643 80.7904 23.3531C82.8413 23.1947 84.8923 23.0363 86.9172 22.8515C86.9172 23.0363 86.9172 23.2475 86.9172 23.4323Z" fill="black"/>
<path d="M177.028 17.968C175.834 17.8624 174.614 17.7832 173.42 17.6776C173.991 17.5456 174.562 17.4136 175.133 17.2816C174.977 16.9121 174.614 16.3841 174.069 15.6714C175.263 15.7506 176.431 15.8562 177.625 15.9618C177.625 15.513 177.625 15.0643 177.625 14.6155C176.769 14.5363 175.912 14.4835 175.055 14.4043C175.055 14.114 175.055 13.8236 175.055 13.5332C173.757 13.4276 172.485 13.3484 171.187 13.2692C171.421 12.8733 171.602 12.5301 171.732 12.2397C170.59 11.923 169.448 11.6062 168.331 11.2894C167.76 12.6093 166.929 13.7444 165.839 14.7475C165.839 14.1668 165.839 13.5596 165.839 12.9789C164.385 12.9261 162.957 12.8469 161.504 12.8205C161.504 13.1109 161.504 13.3748 161.504 13.6652C160.855 13.6388 160.206 13.6124 159.557 13.6124C159.557 12.8469 159.557 12.0814 159.557 11.3422C159.011 11.2102 158.492 11.0783 157.947 10.9463C157.012 12.8997 155.766 14.4307 154.157 15.513C155.169 15.9882 156.078 16.4897 156.831 16.9913C156.545 16.9913 156.285 16.9913 156 16.9649C156 17.836 156 18.7071 156 19.5782C156.857 19.6046 157.713 19.6046 158.57 19.631C158.57 20.027 158.57 20.3965 158.57 20.7925C157.713 20.7661 156.857 20.7661 156 20.7397C156 22.9835 156 25.2536 156 27.4974C155.117 27.603 154.572 27.6558 154.312 27.6822C154.494 28.5797 154.676 29.4508 154.858 30.3483C158.258 29.926 161.088 29.6092 163.373 29.3716C163.632 29.8732 163.84 30.3219 163.97 30.6915C164.956 30.3219 165.969 29.926 166.955 29.5564C166.566 29.53 166.203 29.53 165.813 29.5036C165.813 28.8173 165.813 28.1574 165.813 27.471C165.242 26.6263 164.567 25.7816 163.762 24.9369C164.489 24.9633 165.216 24.9897 165.943 25.0425C165.943 23.8546 165.943 22.6667 165.943 21.4788C165.813 21.4788 165.709 21.4788 165.579 21.4524C165.579 20.8189 165.579 20.159 165.579 19.5254C165.709 19.5254 165.813 19.5254 165.943 19.5518C165.943 18.8127 165.943 18.0736 165.943 17.308C164.567 17.2552 163.165 17.1761 161.789 17.1497C162.36 16.9385 162.905 16.7537 163.477 16.5689C163.347 16.1994 163.087 15.7242 162.698 15.1435C163.555 15.1699 164.437 15.2226 165.294 15.249C164.956 15.4866 164.723 15.645 164.567 15.7506C165.476 16.173 166.384 16.7273 167.319 17.4136C167.241 17.4136 167.163 17.4136 167.111 17.4136C167.111 18.1528 167.111 18.8919 167.111 19.6574C168.305 19.7102 169.526 19.7894 170.72 19.8686C170.72 20.027 170.72 20.2118 170.72 20.3701C171.68 20.4229 172.615 20.5021 173.575 20.5549C173.575 22.1388 173.575 23.749 173.575 25.3328C174.718 25.412 175.86 25.4912 177.002 25.5968C177.002 23.4322 177.002 21.294 177.002 19.1295C177.677 19.1823 178.352 19.235 179.027 19.3142C179.027 18.9711 179.027 18.6279 179.027 18.2583C178.404 18.1 177.729 18.0208 177.028 17.968ZM157.35 16.9649C158.051 16.3313 158.674 15.6714 159.193 15.0379C159.79 15.9354 160.18 16.5953 160.387 17.0441C159.375 17.0177 158.362 16.9913 157.35 16.9649ZM159.349 21.9012C160.439 21.9276 161.53 21.954 162.62 22.0068C162.62 22.218 162.62 22.4027 162.62 22.6139C161.53 22.5875 160.439 22.5347 159.349 22.5083C159.349 22.3235 159.349 22.1124 159.349 21.9012ZM160.906 25.7816C161.14 26.0456 161.452 26.4151 161.841 26.8903C161.01 26.9695 160.18 27.0487 159.349 27.1543C159.349 26.3623 159.349 25.544 159.349 24.7521C160.725 24.7785 162.101 24.8313 163.477 24.8841C162.646 25.1745 161.789 25.4912 160.906 25.7816ZM162.62 19.367C162.62 19.5518 162.62 19.7102 162.62 19.895C161.53 19.8686 160.439 19.8158 159.349 19.7894C159.349 19.6046 159.349 19.4462 159.349 19.2614C160.439 19.2878 161.53 19.3142 162.62 19.367ZM167.734 17.3344C168.409 16.8065 169.058 16.173 169.707 15.381C169.889 15.381 170.071 15.4074 170.252 15.4074C170.927 16.173 171.421 16.9121 171.758 17.572C170.408 17.4928 169.084 17.4136 167.734 17.3344Z" fill="black"/>
<path d="M101.014 16.5689C100.106 16.6481 99.1712 16.7009 98.2625 16.7801C98.2625 16.173 98.2625 15.5658 98.2625 14.9587C98.2366 14.9587 98.2366 14.9587 98.2106 14.9587C98.2106 14.4044 98.2106 13.85 98.2106 13.2957C97.3798 13.3485 96.5491 13.4277 95.7183 13.4805C95.7183 14.0348 95.7183 14.5891 95.7183 15.1435C95.4847 15.1699 95.251 15.1699 95.0434 15.1963C95.0434 14.6419 95.0434 14.0876 95.0434 13.5332C94.2126 13.586 93.4078 13.6652 92.5771 13.718C92.5771 14.2724 92.5771 14.8267 92.5771 15.3811C91.6944 15.4603 90.7858 15.513 89.9031 15.5922C89.9031 17.8624 89.9031 20.1062 89.9031 22.3764C93.6155 22.086 97.302 21.7956 101.014 21.5053C101.014 19.8686 101.014 18.232 101.014 16.5689ZM93.1742 20.2646C92.9665 20.291 92.7328 20.291 92.5251 20.3174C92.5251 20.0798 92.5251 19.8686 92.5251 19.631C92.7328 19.6046 92.9665 19.6046 93.1742 19.5782C93.1742 19.8158 93.1742 20.0534 93.1742 20.2646ZM93.1742 17.8624C92.9665 17.8888 92.7328 17.8888 92.5251 17.9152C92.5251 17.704 92.5251 17.4929 92.5251 17.2817C92.7328 17.2553 92.9665 17.2553 93.1742 17.2289C93.1742 17.4401 93.1742 17.6512 93.1742 17.8624ZM95.7183 20.0798C95.4847 20.1062 95.251 20.1062 95.0434 20.1326C95.0434 19.895 95.0434 19.6838 95.0434 19.4463C95.277 19.4199 95.5107 19.4199 95.7183 19.3935C95.7183 19.631 95.7183 19.8422 95.7183 20.0798ZM95.7183 17.6776C95.4847 17.704 95.251 17.704 95.0434 17.7304C95.0434 17.5192 95.0434 17.3081 95.0434 17.0969C95.277 17.0705 95.5107 17.0705 95.7183 17.0441C95.7183 17.2553 95.7183 17.4665 95.7183 17.6776ZM98.2885 19.8686C98.0548 19.895 97.8212 19.895 97.6135 19.9214C97.6135 19.6838 97.6135 19.4727 97.6135 19.2351C97.8471 19.2087 98.0808 19.2087 98.2885 19.1823C98.2885 19.4199 98.2885 19.6574 98.2885 19.8686ZM98.2885 17.4665C98.0548 17.4929 97.8212 17.4929 97.6135 17.5193C97.6135 17.3081 97.6135 17.0969 97.6135 16.8857C97.8471 16.8593 98.0808 16.8593 98.2885 16.8329C98.2885 17.0441 98.2885 17.2553 98.2885 17.4665Z" fill="black"/>
<path d="M173.601 26.204C173.601 26.4152 173.445 26.5208 173.134 26.4944C172.095 26.4152 171.265 26.3624 170.668 26.2832C171.213 27.2863 171.524 28.2366 171.654 29.1341C173.653 29.2661 175.003 29.2133 175.73 28.9494C176.223 28.7646 176.587 28.5006 176.742 28.131C176.924 27.7615 177.002 27.2335 177.002 26.5208C177.002 26.4944 177.002 26.468 177.002 26.4416C175.886 26.3624 174.743 26.2568 173.601 26.204C173.601 26.1776 173.601 26.204 173.601 26.204Z" fill="black"/>
<path d="M2.07688 27.2863C4.62106 27.4447 7.1912 27.5767 9.73537 27.6822L11.345 27.7614C11.345 28.395 11.345 29.0549 11.345 29.6884C10.0469 29.6357 8.74886 29.5829 7.45081 29.5301C6.95755 29.8732 6.41236 30.19 5.86718 30.5068C4.33549 31.3779 2.77783 32.0378 1.14228 32.513C2.1288 33.3049 3.01148 34.2288 3.81627 35.3111C4.33549 35.1263 4.85471 34.8887 5.37393 34.6512C5.37393 34.0704 5.37393 33.4633 5.37393 32.8825C6.33448 32.9353 7.29504 32.9881 8.2556 33.0145C9.32 32.3018 10.3584 31.4835 11.345 30.586C11.345 32.5394 11.345 34.4664 11.345 36.4198C12.643 36.4726 13.9151 36.499 15.2131 36.5254C15.2131 34.5456 15.2131 32.5658 15.2131 30.586C17.4977 32.9089 19.99 34.6776 22.6639 35.8918C22.9755 35.4695 23.3909 34.9943 23.9101 34.4664C24.4293 33.9384 24.8966 33.5425 25.312 33.2257C25.2081 33.1993 25.1043 33.1465 25.0004 33.0937C24.0918 33.0937 23.2091 33.0937 22.3005 33.0937C22.3005 32.6714 22.3005 32.2754 22.3005 31.853C21.7553 31.5627 21.2101 31.2459 20.665 30.9027C19.1592 29.9524 17.8612 28.9229 16.7968 27.8406C19.4188 27.8934 22.0149 27.9198 24.637 27.8934C24.637 26.8903 24.637 25.8872 24.637 24.8841C21.4957 24.8841 18.3544 24.8313 15.2131 24.7521C14.616 24.7257 14.0189 24.7257 13.4478 24.6993C13.4478 24.409 13.4478 24.1186 13.4478 23.8546C14.0449 23.881 14.642 23.881 15.2131 23.9074C15.2131 23.4851 15.2131 23.0627 15.2131 22.614C17.7314 22.6667 20.2236 22.6931 22.7418 22.7195C22.7418 21.8748 22.7418 21.0565 22.7418 20.2118C23.5207 20.2118 24.2995 20.2118 25.1043 20.2118C25.1043 19.8422 25.1043 19.4727 25.1043 19.1031C23.6505 19.1031 22.1707 19.1031 20.7169 19.1031C20.7169 19.3143 20.7169 19.4991 20.7169 19.7102C18.8996 19.6838 17.0564 19.6574 15.2391 19.6311C15.2391 18.6279 15.2391 17.6248 15.2391 16.6217C13.9411 16.5954 12.669 16.5426 11.3709 16.5162C11.3709 18.0208 11.345 19.4991 11.345 21.0037C10.3065 20.9773 9.26808 20.9245 8.22964 20.8717C8.22964 20.3702 8.22964 19.8686 8.22964 19.3935C6.82774 19.3407 5.42585 19.2615 3.99799 19.1823C3.99799 20.1854 3.99799 21.1885 3.99799 22.1916C6.43833 22.3236 8.90462 22.4556 11.345 22.5348C11.345 23.2475 11.345 23.9866 11.345 24.6993C9.03443 24.6202 6.7239 24.5146 4.38741 24.3826C4.38741 24.2506 4.38741 24.1186 4.38741 23.9866C2.93359 23.9074 1.45382 23.8018 0 23.6962C0 24.0658 0 24.4354 0 24.8049C0.674986 24.8577 1.37593 24.9105 2.05092 24.9369C2.07688 25.7552 2.07688 26.5208 2.07688 27.2863Z" fill="black"/>
<path d="M108.387 26.0192C108.387 26.5736 108.387 27.1279 108.387 27.6823C113.891 27.2863 119.395 26.9431 124.898 26.6528C124.898 26.0984 124.898 25.5441 124.898 24.9897C119.395 25.2801 113.891 25.6233 108.387 26.0192Z" fill="black"/>
<path d="M105.22 29.9788C107.011 29.8468 108.802 29.7148 110.594 29.6092C110.308 30.0844 110.074 30.4276 109.945 30.6651C108.854 30.7707 107.764 30.8763 106.647 30.9819C106.777 31.6154 106.881 32.249 107.011 32.8825C108.595 32.6977 110.152 32.5129 111.684 32.3546C111.684 32.0114 111.684 31.6418 111.684 31.2987C112.333 31.2459 113.008 31.2195 113.657 31.1667C113.657 31.4835 113.657 31.8002 113.657 32.1434C116.928 31.7738 120.069 31.4307 123.107 31.0875C123.574 31.3251 123.989 31.6154 124.431 31.9322C125.261 31.4835 126.092 31.0083 126.923 30.5595C126.144 30.0052 125.08 29.4245 123.704 28.8173C125.08 28.7381 126.43 28.6853 127.806 28.6061C127.806 28.0518 127.806 27.4974 127.806 26.9431C120.277 27.2863 112.748 27.7878 105.22 28.3422C105.22 28.8965 105.22 29.4509 105.22 29.9788ZM114.098 29.3717C116.045 29.2397 118.018 29.1341 119.965 29.0021C119.758 29.1077 119.576 29.2133 119.368 29.2925C119.68 29.3981 119.991 29.5036 120.303 29.6356C119.836 29.6884 118.771 29.7676 117.058 29.9524C115.344 30.1108 114.072 30.2428 113.216 30.322C113.449 30.0844 113.735 29.7676 114.098 29.3717Z" fill="black"/>
<path d="M139.748 19.6574C139.748 23.4059 139.748 27.1807 139.748 30.9291C140.865 30.9027 142.007 30.8763 143.123 30.8499C143.123 26.7319 143.123 22.6139 143.123 18.4695C144.084 18.4431 145.045 18.4432 146.005 18.4432C146.005 17.5192 146.005 16.5689 146.005 15.645C145.045 15.645 144.084 15.6714 143.123 15.6714C143.123 14.7475 143.123 13.8236 143.123 12.9261C143.746 14.0876 144.162 15.0115 144.344 15.6186C145.174 15.3019 145.979 15.0115 146.81 14.6947C146.55 13.9292 146.057 12.9789 145.356 11.8702C144.629 12.1342 143.876 12.3982 143.149 12.6621C143.149 12.319 143.149 12.0022 143.149 11.659C142.033 11.6854 140.891 11.7118 139.774 11.7382C139.774 13.0845 139.774 14.4307 139.774 15.7506C138.762 15.777 137.724 15.8034 136.711 15.8298C136.711 16.1466 136.711 16.4633 136.711 16.7801C135.828 16.5425 134.946 16.3314 134.063 16.1202C133.518 17.1761 132.817 18.232 131.96 19.2615C131.103 20.291 130.195 21.1621 129.26 21.8748C129.546 22.1916 129.909 22.6403 130.299 23.2211C130.714 23.8018 131 24.277 131.155 24.6201C131.571 24.277 131.96 23.9338 132.272 23.617C132.272 25.5704 132.272 27.5502 132.272 29.5036C132.869 29.4773 133.492 29.4509 134.089 29.4245C134.089 30.0844 134.089 30.7443 134.089 31.3779C134.582 31.3515 135.076 31.3515 135.595 31.3251C135.595 29.926 135.595 28.5005 135.595 27.1015C136.451 27.4974 137.204 27.9462 137.853 28.4214C138.736 26.6791 139.307 24.0658 139.567 20.5813C138.606 20.4757 137.672 20.3966 136.711 20.3174C136.555 23.4059 136.166 25.5968 135.595 26.8903C135.595 25.1745 135.595 23.4586 135.595 21.7428C134.401 21.7692 133.206 21.822 132.038 21.8748C132.038 21.7164 132.038 21.5844 132.038 21.4261C133.232 21.3733 134.426 21.3469 135.595 21.2941C135.595 20.7397 135.595 20.1854 135.595 19.631C136.114 18.8655 136.477 18.2584 136.711 17.8624C136.711 18.1 136.711 18.3376 136.711 18.5751C137.075 18.5751 137.438 18.5487 137.827 18.5487C139.048 18.5223 140.294 18.4959 141.514 18.4695C141.514 18.8391 141.514 19.2087 141.514 19.5782C140.917 19.631 140.32 19.6574 139.748 19.6574Z" fill="black"/>
<path d="M67.2389 32.0378C67.2389 33.2257 67.2389 34.4136 67.2389 35.6015C68.4071 35.5223 69.6013 35.4167 70.7696 35.3375C70.7696 34.1232 70.7696 32.909 70.7696 31.6947C72.0417 32.9882 73.2618 33.9385 74.456 34.572C75.1829 33.5953 76.0137 32.7506 76.9743 32.0115C75.2608 31.3779 73.7291 30.5068 72.4051 29.3717C73.7551 29.2661 75.1051 29.1605 76.481 29.0549C76.481 28.6326 76.481 28.1838 76.481 27.7615C74.9493 27.8671 73.4436 27.9991 71.9119 28.1046C71.9119 27.7087 71.9119 27.2863 71.9119 26.864C71.5484 26.8904 71.159 26.9168 70.7955 26.9432C70.7955 26.6264 70.7955 26.3096 70.7955 25.9929C71.9638 25.9137 73.132 25.8081 74.3003 25.7289C74.3003 25.2273 74.3003 24.6994 74.3003 24.1978C75.0272 24.145 75.7541 24.0922 76.481 24.0394C76.481 23.8811 76.481 23.6963 76.481 23.5379C75.7541 23.5907 75.0272 23.6435 74.3003 23.6963C74.3003 23.5643 74.3003 23.4587 74.3003 23.3267C73.158 23.4059 72.0157 23.5115 70.8734 23.5907C69.6533 23.6699 68.459 23.7755 67.2389 23.8547C67.2389 23.6171 67.2389 23.3795 67.2389 23.1683C68.4071 23.0891 69.5754 23.01 70.7177 22.9044C70.7177 22.482 70.7177 22.0596 70.7177 21.6373C71.9119 21.5581 73.1061 21.4525 74.3003 21.3733C74.3003 20.8454 74.3003 20.3174 74.3003 19.7895C74.9753 19.7367 75.6502 19.6839 76.3252 19.6311C76.3252 18.7864 76.3252 17.9417 76.3252 17.0969C75.6502 17.1497 74.9753 17.2025 74.3003 17.2553C74.3003 16.569 74.3003 15.8563 74.3003 15.1699C73.158 15.2491 72.0157 15.3547 70.8734 15.4339C70.8734 16.1202 70.8734 16.833 70.8734 17.5193C69.6533 17.5985 68.459 17.7041 67.2389 17.7833C67.2389 17.0969 67.2389 16.3842 67.2389 15.6979C66.1485 15.7771 65.0582 15.8563 63.9678 15.9355C63.9678 16.6218 63.9678 17.3345 63.9678 18.0209C63.2409 18.0736 62.5399 18.1264 61.813 18.1792C61.813 18.892 61.813 19.6047 61.813 20.291C61.2419 20.2646 60.6707 20.2646 60.0736 20.2382C59.8919 20.2646 59.7102 20.291 59.5025 20.3174C59.1131 20.3438 58.6977 20.3702 58.3083 20.3966C58.516 19.3671 58.7756 18.1 59.0352 16.5426C57.8929 16.5162 56.7506 16.4898 55.6343 16.4634C55.5305 17.3081 55.2968 18.6808 54.9853 20.5814C54.3103 20.6342 53.6353 20.6606 52.9603 20.687C52.9603 21.6109 52.9603 22.5348 52.9603 23.4587C53.4536 23.4323 53.9469 23.4059 54.4142 23.3795C54.3103 23.9075 54.2065 24.4354 54.1026 24.937C55.167 24.8842 56.2574 24.805 57.3218 24.7522C57.4775 24.0922 57.6073 23.5643 57.6852 23.1947C58.0227 23.1683 58.3862 23.1419 58.7237 23.1155C58.6717 23.6435 58.5939 24.145 58.49 24.6466C58.5419 24.6466 58.5939 24.6466 58.6718 24.6466C58.6718 25.1481 58.6718 25.6761 58.6718 26.1776C58.516 26.1776 58.3602 26.204 58.1785 26.204C58.0487 26.7848 57.8929 27.3391 57.7112 27.8671C57.3737 27.6295 57.0362 27.4183 56.7247 27.1807C56.8026 26.864 56.8804 26.5736 56.9324 26.2832C55.868 26.336 54.8036 26.4152 53.7392 26.468C53.7132 26.5472 53.7132 26.6264 53.6872 26.7056C51.9219 26.8112 50.1565 26.9168 48.3652 26.996C48.3652 27.3919 48.3652 27.7879 48.3652 28.1838C50.0527 28.1046 51.7142 27.9991 53.4017 27.9199C53.2719 28.395 53.168 28.8438 53.0382 29.2925C53.9468 29.7677 54.8814 30.2428 55.7901 30.718C55.842 30.5332 55.8939 30.3748 55.9718 30.19C56.1535 30.3484 56.3353 30.4804 56.517 30.6388C55.5824 32.1434 54.4401 33.2785 53.0382 34.044C53.817 34.6248 54.518 35.3639 55.1411 36.3142C56.7247 35.2847 57.9968 34.0704 58.9054 32.7242C59.4246 33.2521 59.7881 33.6481 59.9698 33.9121C60.6707 33.0937 61.3717 32.2754 62.0986 31.4571C61.7351 31.0084 61.19 30.5068 60.4371 29.8997C61.3717 27.5503 61.9428 24.4882 62.1246 20.687C62.7217 20.6342 63.3447 20.6078 63.9418 20.555C63.9418 22.5348 63.9418 24.5146 63.9418 26.4944C65.0322 26.4152 66.1226 26.336 67.2389 26.2568C67.2389 26.5736 67.2389 26.8904 67.2389 27.2071C65.4476 27.3391 63.6303 27.4711 61.839 27.5767C61.839 28.4214 61.839 29.2661 61.839 30.1108C63.0851 30.0316 64.3313 29.9525 65.5774 29.8469C64.2274 31.2987 62.5659 32.4602 60.5669 33.3313C61.164 33.7273 61.7351 34.2024 62.2544 34.7304C60.7486 34.836 59.2429 34.9416 57.7372 35.0208C57.7372 35.5223 57.7372 35.9975 57.7372 36.499C59.5285 36.3934 61.3198 36.2614 63.1111 36.1558C63.1111 35.9183 63.1111 35.6807 63.1111 35.4431C63.1111 35.1791 63.1111 34.9152 63.1111 34.6512C63.1111 34.308 63.1111 33.9385 63.1111 33.5953C64.0197 33.5425 64.9543 33.4633 65.8629 33.4105C66.3043 33.041 66.7716 32.5658 67.2389 32.0378ZM67.2129 20.3438C68.4331 20.2646 69.6273 20.159 70.8475 20.0798C70.8475 20.3174 70.8475 20.5286 70.8475 20.7662C69.6273 20.8454 68.4331 20.951 67.2129 21.0301C67.2129 20.7926 67.2129 20.555 67.2129 20.3438Z" fill="black"/>
<path d="M126.326 22.0596C126.3 22.2444 126.274 22.3764 126.196 22.4292C126.144 22.482 126.092 22.5084 125.989 22.5084C125.937 22.5084 125.885 22.5084 125.807 22.5084C125.729 22.5084 125.677 22.482 125.651 22.4028C125.625 22.35 125.625 22.1652 125.625 21.7957C125.625 20.8982 125.625 20.0006 125.625 19.1031C124.69 19.1559 123.756 19.2087 122.821 19.2351H122.795C122.795 19.8687 122.795 20.5022 122.795 21.1621C122.38 20.9773 121.991 20.7926 121.575 20.6078C121.731 20.0798 121.809 19.5783 121.861 19.1295C122.172 19.1295 122.484 19.1031 122.795 19.1031H122.821C122.821 18.3904 122.821 17.7041 122.821 16.9913C122.665 16.9913 122.51 17.0177 122.354 17.0177C122.354 16.4106 122.354 15.7771 122.354 15.1699C123.496 15.1171 124.613 15.0379 125.755 14.9851C125.755 14.4572 125.755 13.9292 125.755 13.4013C126.092 13.3749 126.404 13.3749 126.741 13.3485C126.741 13.1901 126.741 13.0053 126.741 12.847C125.729 12.8998 124.69 12.9525 123.678 13.0053C123.678 12.847 123.678 12.6622 123.678 12.5038C125.236 12.4246 126.767 12.3454 128.325 12.2662C128.325 11.8703 128.325 11.4743 128.325 11.0783C126.767 11.1575 125.236 11.2367 123.678 11.3159C123.678 11.0783 123.678 10.8672 123.678 10.6296C122.795 10.6824 121.887 10.7352 121.004 10.788C121.004 11.2367 121.004 11.6855 121.004 12.1342C120.277 12.187 119.55 12.2134 118.797 12.2662C118.797 12.6094 118.797 12.9525 118.797 13.2957C117.941 13.3485 117.084 13.4013 116.227 13.4541C116.227 14.1404 116.227 14.8532 116.227 15.5395C117.084 15.4867 117.941 15.4339 118.797 15.3811C118.797 15.9882 118.797 16.6218 118.797 17.2289C118.174 17.2553 117.551 17.3081 116.928 17.3345C116.928 18.0472 116.928 18.7336 116.928 19.4463C117.162 19.4199 117.421 19.4199 117.655 19.3935C117.266 19.8423 116.876 20.291 116.487 20.7398C116.539 20.6078 116.591 20.4494 116.643 20.2646C115.916 20.2118 115.396 20.0798 115.007 19.9215C114.981 20.2118 114.825 20.3702 114.566 20.3966C114.332 20.423 114.098 20.423 113.891 20.4494C113.761 20.4494 113.683 20.4494 113.657 20.3966C113.631 20.3438 113.605 20.2382 113.605 20.0534C113.605 20.027 113.605 20.0006 113.605 20.0006C114.202 19.9742 114.799 19.9215 115.37 19.8951C115.37 19.3935 115.37 18.9184 115.37 18.4168C114.41 18.4696 113.475 18.5488 112.515 18.6016C112.515 18.4696 112.515 18.3112 112.515 18.1792C113.501 18.1264 114.462 18.0472 115.448 17.9944C115.448 17.5193 115.448 17.0441 115.448 16.5954C115.007 16.6218 114.566 16.6482 114.124 16.6746C114.124 15.3019 114.124 13.9556 114.124 12.583C112.956 12.6622 111.788 12.7414 110.62 12.8206C110.62 13.1637 110.62 13.5069 110.62 13.8501C108.854 13.982 107.089 14.0876 105.324 14.2196C105.324 14.906 105.324 15.6187 105.324 16.305C107.089 16.173 108.854 16.041 110.62 15.9354C110.62 16.1202 110.62 16.305 110.62 16.4898C110.256 16.5162 109.893 16.5426 109.529 16.569C109.529 16.701 109.529 16.8594 109.529 16.9913C109.529 17.4665 109.529 17.9416 109.529 18.3904C109.529 18.5224 109.529 18.6808 109.529 18.8128C108.205 18.892 106.881 18.9975 105.557 19.1031C105.557 19.1031 105.557 19.1031 105.557 19.1295C104.571 19.2087 103.584 19.2615 102.598 19.3407C102.598 19.4991 102.598 19.6839 102.598 19.8423C103.584 19.7631 104.571 19.6839 105.557 19.6311C105.557 19.9478 105.557 20.2646 105.557 20.5814C106.284 20.5286 107.011 20.4758 107.712 20.423C107.374 20.819 106.44 21.1621 104.908 21.3997C105.116 21.5317 105.324 21.7165 105.531 21.954C105.765 22.1916 105.921 22.4292 105.999 22.614C106.05 22.5876 106.154 22.5612 106.284 22.5348C106.414 22.5084 106.492 22.482 106.544 22.482C106.544 22.9307 106.544 23.4059 106.544 23.8547C107.53 23.7755 108.543 23.7227 109.529 23.6435C109.529 23.8019 109.529 23.9602 109.529 24.145C107.349 24.3562 105.973 24.4882 105.401 24.541C105.427 25.0953 105.479 25.6497 105.505 26.1776C109.192 25.7553 112.852 25.3329 116.487 24.9106C116.487 24.7522 116.487 24.5938 116.487 24.4354C117.032 24.805 117.447 25.0953 117.707 25.3593C118.979 24.5938 119.94 23.7227 120.615 22.746C121.082 22.9307 121.497 23.1683 121.913 23.4587C122.224 23.0891 122.536 22.7196 122.847 22.3764C122.873 23.2475 123.055 23.8547 123.418 24.145C123.808 24.4618 124.353 24.5938 125.028 24.5674C125.365 24.541 125.729 24.541 126.066 24.5146C126.612 24.4882 127.001 24.3826 127.261 24.2242C127.624 24.0394 127.884 23.7755 128.039 23.4059C128.195 23.1155 128.299 22.482 128.351 21.5053C127.546 21.3205 126.923 21.0565 126.456 20.7398C126.43 21.3469 126.378 21.7957 126.326 22.0596ZM109.581 21.2413C109.581 21.5845 109.581 21.9013 109.581 22.2444C108.647 22.2972 107.738 22.3764 106.803 22.4292C108.595 21.9804 109.685 21.2413 110.022 20.2382C110.542 20.2118 111.061 20.159 111.58 20.1326C111.58 20.159 111.58 20.1854 111.58 20.1854C111.58 20.5814 111.632 20.8982 111.71 21.0829C110.983 21.1357 110.282 21.1885 109.581 21.2413ZM116.461 23.4587C115.163 23.5907 113.891 23.6963 112.593 23.8283C112.593 23.6963 112.593 23.5643 112.593 23.4323C113.605 23.3531 114.618 23.3003 115.604 23.2475C115.604 22.7724 115.604 22.2972 115.604 21.8485C114.592 21.9013 113.579 21.9804 112.593 22.0332C112.593 21.9277 112.593 21.7957 112.593 21.6901C112.826 21.7165 113.19 21.7429 113.605 21.7165C114.046 21.6901 114.488 21.6637 114.929 21.6373C115.604 21.5845 116.071 21.4261 116.331 21.1093C116.643 21.1885 117.266 21.3997 118.226 21.7165C117.811 22.2972 117.24 22.878 116.461 23.4587ZM119.187 19.5255C119.161 19.6311 119.135 19.7103 119.135 19.7631C118.771 19.6311 118.356 19.5255 117.863 19.4199C118.33 19.3935 118.797 19.3671 119.239 19.3407C119.239 19.3671 119.213 19.4199 119.187 19.5255Z" fill="black"/>
<path d="M151.56 23.3531C151.56 22.5876 151.56 21.8221 151.56 21.0566C152.157 21.0566 152.729 21.0566 153.326 21.0566C153.326 20.159 153.326 19.2615 153.326 18.364C151.015 18.3376 148.679 18.3376 146.368 18.364C146.368 19.2615 146.368 20.159 146.368 21.0566C146.965 21.0566 147.536 21.0566 148.133 21.0566C148.133 23.3531 148.133 25.6233 148.133 27.9199C148.133 28.131 148.004 28.2366 147.744 28.2366C146.887 28.2366 146.16 28.2366 145.589 28.2102C146.134 29.2925 146.446 30.2692 146.55 31.1403C148.419 31.1139 149.691 30.9556 150.392 30.6124C150.859 30.3748 151.171 30.0581 151.353 29.6621C151.508 29.2661 151.586 28.7118 151.586 27.9727C151.586 26.9696 151.586 25.9929 151.586 24.9898C150.833 24.9898 150.055 24.9898 149.302 24.9898C149.302 24.4354 149.302 23.9075 149.302 23.3531C150.029 23.3531 150.807 23.3531 151.56 23.3531Z" fill="black"/>
<path d="M31.984 30.5859C30.2186 31.7738 28.2975 32.6977 26.2466 33.3313C27.1552 34.0176 28.0119 34.8887 28.8167 35.971C31.5167 34.9151 33.983 33.3313 36.2156 31.1931C36.2156 32.5657 36.2156 33.9384 36.2156 35.3111C36.7089 35.2847 37.2281 35.2847 37.7213 35.2583C37.7213 35.6542 37.7213 36.0238 37.7213 36.4198C38.5002 36.3934 39.279 36.367 40.0578 36.3406C40.0578 34.5192 40.0578 32.6977 40.0578 30.8763C42.3164 32.9089 44.8087 34.3872 47.5086 35.2847C47.8461 34.8095 48.2615 34.308 48.7807 33.7272C49.2999 33.1465 49.7672 32.6977 50.2086 32.3546C48.573 31.9586 47.0413 31.3779 45.5875 30.6651C44.5491 30.7179 43.5106 30.7443 42.4722 30.7971C42.4722 30.3484 42.4722 29.8996 42.4722 29.4509C42.7837 29.4509 43.1212 29.4245 43.4328 29.4245C42.4203 28.7645 41.5636 28.0518 40.8107 27.2863C41.5636 27.603 42.2386 27.9462 42.8097 28.2894C43.4068 27.7614 43.8741 27.2599 44.1856 26.8111C45.4837 27.6558 46.4442 28.3158 47.0413 28.7909C47.8721 28.0518 48.7028 27.3127 49.5596 26.5735C49.0923 26.2568 47.7942 25.4913 45.7173 24.277C46.0808 23.4323 46.3664 22.7195 46.5221 22.086C45.5356 21.9804 44.5491 21.8748 43.5626 21.7692C45.4577 21.69 47.3529 21.6108 49.248 21.5052C49.248 20.9773 49.248 20.4494 49.248 19.9478C49.8711 19.9214 50.5201 19.895 51.1432 19.8422C51.1432 19.0239 51.1432 18.2056 51.1432 17.4137C50.2345 17.4664 49.2999 17.5192 48.3913 17.5456C48.3913 18.2848 48.3913 19.0503 48.3913 19.7894C47.0413 19.8686 45.6914 19.9214 44.3414 19.9742C44.3414 19.5782 44.3414 19.1559 44.3414 18.7599C42.9135 18.8127 41.5117 18.8655 40.0838 18.9183C40.0838 18.1 40.0838 17.2817 40.0838 16.4633C38.8117 16.5161 37.5137 16.5425 36.2416 16.5953C36.2416 17.4137 36.2416 18.232 36.2416 19.0503C34.1647 19.1031 32.0618 19.1559 29.985 19.1823C29.985 19.6574 29.985 20.159 29.985 20.6341C29.1283 20.6341 28.2975 20.6605 27.4408 20.6605C27.4408 21.1621 27.4408 21.6636 27.4408 22.1916C28.7129 22.1916 29.985 22.1652 31.2311 22.1388C30.5042 24.7785 29.0763 26.7583 26.9216 28.0254C27.934 28.5797 28.8686 29.2397 29.7254 30.0052C30.66 29.3189 31.5426 28.4214 32.3993 27.3391C32.9964 27.7878 33.4378 28.1574 33.7493 28.4478C34.5541 27.7086 35.3329 26.9695 36.1377 26.2568C35.6964 25.9136 34.9695 25.3857 33.983 24.7257C34.3464 23.9074 34.606 23.1947 34.8137 22.5611C33.8272 22.4292 32.8147 22.2972 31.8282 22.1652C33.308 22.1388 34.7878 22.1124 36.2675 22.0596C36.2675 23.617 36.2675 25.1745 36.2675 26.7319C35.1772 28.1046 33.7493 29.3981 31.984 30.5859ZM40.0838 21.9276C41.0444 21.9012 42.0049 21.8484 42.9914 21.822C42.4982 23.7754 41.5376 25.3329 40.1357 26.5207C40.1098 26.4944 40.1098 26.468 40.0838 26.468C40.0838 24.9369 40.0838 23.4323 40.0838 21.9276Z" fill="black"/>
<path d="M152.936 13.6916C152.21 13.6916 151.483 13.6916 150.756 13.6916C150.756 13.2956 150.756 12.8997 150.756 12.5037C151.327 12.5037 151.924 12.5037 152.495 12.5037C152.495 12.3453 152.495 12.1606 152.495 12.0022C151.015 12.0022 149.51 12.0022 148.03 12.0022C148.03 12.1342 148.03 12.2397 148.03 12.3717C147.666 12.3717 147.329 12.3717 146.965 12.3717C146.965 13.2692 146.965 14.1404 146.965 15.0379C148.964 15.0115 150.937 15.0115 152.936 15.0379C152.936 14.5891 152.936 14.1404 152.936 13.6916Z" fill="black"/>
<path d="M133.621 13.1373C133.18 13.1637 132.765 13.1637 132.323 13.1901C132.142 13.3749 131.96 13.5597 131.778 13.7708C131.025 14.5364 130.246 15.1963 129.468 15.6979C130.143 16.3314 130.74 17.0705 131.311 17.9152C132.297 17.2553 133.258 16.437 134.244 15.4603C135.231 14.4836 136.088 13.5069 136.789 12.5302C135.724 12.2398 134.686 11.923 133.621 11.6327C133.621 12.1078 133.621 12.6094 133.621 13.1373Z" fill="black"/>
<path d="M96.6271 31.0876C97.38 31.0348 98.1588 30.9556 98.9117 30.9028C98.9117 30.2164 98.9117 29.5037 98.9117 28.8174C99.5088 28.7646 100.106 28.7118 100.729 28.6854C100.729 27.2863 100.729 25.9137 100.729 24.5146C97.1983 24.7786 93.6936 25.069 90.1629 25.3329C90.1629 26.732 90.1629 28.1311 90.1629 29.5037C90.9417 29.4509 91.6946 29.3717 92.4734 29.3189C91.9542 29.5301 91.409 29.7413 90.8898 29.9261C91.2532 30.3748 91.5388 30.85 91.7725 31.3779C90.8119 31.4571 89.8773 31.5363 88.9167 31.6155C88.9167 32.3018 88.9167 33.0146 88.9167 33.7009C91.4869 33.4897 94.057 33.2785 96.6271 33.0938C96.6271 32.4602 96.6271 31.7739 96.6271 31.0876ZM93.0445 26.8376C94.6022 26.7056 96.1598 26.6 97.7175 26.468C97.7175 26.732 97.7175 26.9696 97.7175 27.2335C96.1598 27.3655 94.6022 27.4711 93.0445 27.6031C93.0445 27.3391 93.0445 27.1016 93.0445 26.8376ZM94.6022 31.1931C94.4205 30.586 94.057 29.9261 93.5118 29.2661C94.4983 29.187 95.5108 29.1078 96.4973 29.0286C96.4973 29.6885 96.4973 30.3748 96.4973 31.0348C96.3675 31.0348 96.2118 31.0612 96.082 31.0612L94.6022 31.1931Z" fill="black"/>
<path d="M12.1238 1.49607C12.1238 1.2057 12.1238 0.915332 12.1238 0.624961C12.7729 0.651359 13.3959 0.677756 14.0449 0.677756C14.0449 2.02402 14.0449 3.37029 14.0449 4.69016C13.3959 4.66376 12.7729 4.66376 12.1238 4.63736C11.5527 3.15911 10.6181 2.41998 9.32004 2.36719C8.67102 2.34079 8.09988 2.47278 7.58066 2.81594C7.0874 3.13271 6.67202 3.58147 6.41241 4.16221C6.12684 4.74295 5.99703 5.40288 5.99703 6.11561C5.99703 6.80195 6.12684 7.40908 6.38645 7.98983C6.64606 8.57057 7.03548 9.04572 7.50277 9.38889C7.97007 9.75845 8.54121 9.94323 9.13832 9.96963C9.89119 9.99603 10.5662 9.75845 11.1373 9.2305C11.7085 8.70256 12.0719 8.01622 12.2796 7.14511C13.0065 7.51467 13.7594 7.91063 14.4863 8.2802C13.6555 10.9199 11.7863 12.187 8.93063 12.055C7.6845 12.0022 6.6201 11.7119 5.6855 11.1839C4.75091 10.656 4.04996 9.94323 3.5567 9.01932C3.06344 8.09542 2.80383 7.06592 2.80383 5.87804C2.80383 4.76935 3.06344 3.76625 3.58266 2.89513C4.10188 2.02402 4.80283 1.36409 5.71146 0.915332C6.6201 0.466577 7.63258 0.255398 8.7489 0.308193C10.0989 0.360988 11.2412 0.756948 12.1238 1.49607Z" fill="black"/>
<path d="M15.9398 9.28328C15.9398 8.54416 15.9398 7.80503 15.9398 7.0659C17.4456 7.0923 18.9513 7.1187 20.457 7.1451C20.457 7.88422 20.457 8.62335 20.457 9.36248C18.9513 9.33608 17.4456 9.30968 15.9398 9.28328Z" fill="black"/>
<path d="M26.2727 2.73676C26.2727 5.24451 26.2727 7.77866 26.2727 10.2864C27.389 10.2864 28.4794 10.26 29.5957 10.26C29.5957 9.07213 29.5957 7.91065 29.5957 6.72276C30.3226 6.72276 31.0755 6.69637 31.8024 6.69637C31.8024 8.51778 31.8024 10.3392 31.8024 12.1606C28.4534 12.2134 25.1045 12.2398 21.7555 12.2398C21.7555 11.5799 21.7555 10.9463 21.7555 10.2864C22.3007 10.2864 22.8199 10.2864 23.3651 10.2864C23.3651 7.77866 23.3651 5.24451 23.3651 2.73676C22.8199 2.73676 22.3007 2.73676 21.7555 2.73676C21.7555 2.07683 21.7555 1.44329 21.7555 0.783355C23.8064 0.783355 25.8833 0.783355 27.9342 0.756958C27.9342 1.41689 27.9342 2.05043 27.9342 2.71036C27.3631 2.71036 26.8179 2.73676 26.2727 2.73676Z" fill="black"/>
<path d="M40.2398 2.41999C41.0186 4.90134 41.7974 7.38269 42.5762 9.86404C43.0176 9.83765 43.4589 9.83765 43.9262 9.81125C43.9262 10.4712 43.9262 11.1047 43.9262 11.7647C42.083 11.8438 40.2398 11.923 38.3965 11.9758C38.3965 11.3159 38.3965 10.6824 38.3965 10.0224C38.8638 9.99603 39.3571 9.99603 39.8244 9.96963C39.6427 9.3361 39.4609 8.67616 39.2792 8.04263C38.3186 8.06902 37.3321 8.09542 36.3716 8.12182C36.1639 8.78175 35.9822 9.41529 35.7745 10.0752C36.2677 10.0488 36.761 10.0488 37.2802 10.0224C37.2802 10.6824 37.2802 11.3159 37.2802 11.9758C35.6187 12.0286 33.9572 12.0814 32.3217 12.1078C32.3217 11.4479 32.3217 10.8143 32.3217 10.1544C32.789 10.1544 33.2562 10.128 33.6976 10.128C34.4245 7.59387 35.1514 5.05972 35.8783 2.52558C35.3851 2.55197 34.8658 2.55197 34.3726 2.55197C34.3726 1.89204 34.3726 1.2585 34.3726 0.598569C36.8129 0.545774 39.2792 0.466582 41.7195 0.360992C41.7195 1.02093 41.7195 1.65446 41.7195 2.3144C41.2522 2.39359 40.733 2.41999 40.2398 2.41999ZM37.9033 2.97433C37.5658 4.13582 37.2283 5.2973 36.8908 6.45878C37.5398 6.43239 38.1888 6.40599 38.8379 6.40599C38.5263 5.2445 38.2148 4.10942 37.9033 2.97433Z" fill="black"/>
<path d="M54.5699 2.78954C54.5699 3.89823 54.0507 4.71655 52.9863 5.2445C53.6613 5.45567 54.1805 5.79884 54.518 6.2212C54.8555 6.64356 55.0112 7.1979 55.0112 7.85783C55.0112 10.0752 53.3757 11.2895 50.0786 11.4743C48.3392 11.5535 46.5999 11.6591 44.8605 11.7382C44.8605 11.0783 44.8605 10.4448 44.8605 9.78484C45.3278 9.75844 45.7951 9.73205 46.2364 9.73205C46.2364 7.2243 46.2364 4.69015 46.2364 2.1824C45.7691 2.2088 45.3018 2.2352 44.8605 2.2352C44.8605 1.57526 44.8605 0.941726 44.8605 0.281792C46.5999 0.2026 48.3392 0.123408 50.0786 0.0178182C51.5844 -0.0613739 52.7267 0.123408 53.4536 0.572163C54.1805 1.04732 54.5699 1.78644 54.5699 2.78954ZM51.6363 3.10631C51.6363 2.65755 51.4805 2.36718 51.169 2.2088C50.8575 2.05041 50.4161 1.97122 49.845 1.99762C49.6113 1.99762 49.3777 2.02402 49.17 2.02402C49.17 2.89513 49.17 3.73985 49.17 4.61096C49.4815 4.58456 49.7671 4.58456 50.0786 4.55816C50.5979 4.53177 51.0132 4.39978 51.2728 4.1886C51.5065 3.97742 51.6363 3.60786 51.6363 3.10631ZM51.9997 7.93703C51.9997 7.38268 51.844 6.98672 51.5324 6.77554C51.2209 6.53797 50.6757 6.45877 49.8969 6.51157C49.6633 6.51157 49.4036 6.53797 49.17 6.53797C49.17 7.54107 49.17 8.57056 49.17 9.57366C49.5594 9.54726 49.9488 9.52087 50.3123 9.52087C50.8315 9.49447 51.2469 9.36248 51.5584 9.09851C51.844 8.83454 51.9997 8.46497 51.9997 7.93703Z" fill="black"/>
</svg>
