<svg width="1440" height="1184" viewBox="0 0 1440 1184" fill="none" xmlns="http://www.w3.org/2000/svg">
<g clip-path="url(#clip0)">
<path fill-rule="evenodd" clip-rule="evenodd" d="M1440 -0.385254H0V1183.61H1440V-0.385254ZM1370.09 795.123C1452.95 636.527 1302.74 394.387 1034.59 254.287C766.445 114.188 481.895 129.182 399.034 287.778C316.172 446.374 466.378 688.515 734.528 828.614C1002.68 968.714 1287.23 953.719 1370.09 795.123Z" fill="white"/>
<mask id="path-2-inside-1" fill="white">
<path fill-rule="evenodd" clip-rule="evenodd" d="M1377.39 807.888C1463.89 647.534 1307.18 395.194 1027.39 244.271C747.591 93.3477 450.653 100.992 364.158 261.346C277.662 421.7 434.363 674.04 714.16 824.963C993.956 975.886 1290.89 968.242 1377.39 807.888ZM1370.09 795.123C1452.95 636.527 1302.74 394.387 1034.59 254.287C766.445 114.188 481.895 129.182 399.034 287.778C316.172 446.374 466.378 688.515 734.528 828.614C1002.68 968.714 1287.23 953.719 1370.09 795.123Z"/>
</mask>
<path fill-rule="evenodd" clip-rule="evenodd" d="M1377.39 807.888C1463.89 647.534 1307.18 395.194 1027.39 244.271C747.591 93.3477 450.653 100.992 364.158 261.346C277.662 421.7 434.363 674.04 714.16 824.963C993.956 975.886 1290.89 968.242 1377.39 807.888ZM1370.09 795.123C1452.95 636.527 1302.74 394.387 1034.59 254.287C766.445 114.188 481.895 129.182 399.034 287.778C316.172 446.374 466.378 688.515 734.528 828.614C1002.68 968.714 1287.23 953.719 1370.09 795.123Z" fill="url(#paint0_linear)"/>
<path d="M1027.39 244.271L1033.08 233.71L1027.39 244.271ZM1377.39 807.888L1366.83 802.191L1377.39 807.888ZM364.158 261.346L374.719 267.043L364.158 261.346ZM714.16 824.963L708.463 835.524L714.16 824.963ZM1034.59 254.287L1040.15 243.651L1034.59 254.287ZM1370.09 795.123L1380.72 800.68L1370.09 795.123ZM399.034 287.778L388.398 282.221L399.034 287.778ZM734.528 828.614L740.084 817.978L734.528 828.614ZM1021.69 254.833C1160.09 329.484 1267.51 428.959 1329.55 528.874C1391.8 629.114 1407.16 727.424 1366.83 802.191L1387.95 813.585C1434.12 727.998 1414.37 619.961 1349.94 516.213C1285.31 412.138 1174.49 309.982 1033.08 233.71L1021.69 254.833ZM374.719 267.043C415.049 192.276 505.637 151.112 623.594 148.076C741.167 145.049 883.295 180.181 1021.69 254.833L1033.08 233.71C891.684 157.437 745.445 120.931 622.976 124.084C500.891 127.227 399.762 170.062 353.596 255.649L374.719 267.043ZM719.857 814.401C581.461 739.75 474.04 640.275 411.994 540.36C349.745 440.12 334.39 341.81 374.719 267.043L353.596 255.649C307.43 341.236 327.178 449.273 391.605 553.021C456.235 657.096 567.062 759.252 708.463 835.524L719.857 814.401ZM1366.83 802.191C1326.5 876.958 1235.91 918.122 1117.95 921.158C1000.38 924.185 858.252 889.053 719.857 814.401L708.463 835.524C849.863 911.797 996.102 948.303 1118.57 945.15C1240.66 942.007 1341.78 899.172 1387.95 813.585L1366.83 802.191ZM1029.04 264.923C1161.54 334.153 1264.38 428.346 1323.77 524.095C1383.33 620.107 1398.13 715.548 1359.45 789.566L1380.72 800.68C1424.91 716.102 1406.03 611.175 1344.17 511.443C1282.14 411.448 1175.8 314.521 1040.15 243.651L1029.04 264.923ZM409.669 293.335C448.342 219.317 535.134 176.951 647.963 171.005C760.482 165.076 896.533 195.694 1029.04 264.923L1040.15 243.651C904.507 172.782 764.208 140.847 646.7 147.039C529.5 153.214 432.587 197.644 388.398 282.221L409.669 293.335ZM740.084 817.978C607.579 748.749 504.744 654.556 445.349 558.807C385.79 462.795 370.997 367.353 409.669 293.335L388.398 282.221C344.209 366.799 363.088 471.726 424.954 571.458C486.984 671.453 593.326 768.38 728.971 839.25L740.084 817.978ZM1359.45 789.566C1320.78 863.585 1233.99 905.951 1121.16 911.896C1008.64 917.825 872.59 887.208 740.084 817.978L728.971 839.25C864.615 910.12 1004.91 942.055 1122.42 935.863C1239.62 929.687 1336.54 885.258 1380.72 800.68L1359.45 789.566Z" fill="url(#paint1_linear)" mask="url(#path-2-inside-1)"/>
</g>
<defs>
<linearGradient id="paint0_linear" x1="360.19" y1="335.256" x2="1400.72" y2="381.07" gradientUnits="userSpaceOnUse">
<stop stop-color="#BDBDBD"/>
<stop offset="0.488246" stop-color="#A2A2A2"/>
<stop offset="0.74097" stop-color="#E7E7E7"/>
<stop offset="1" stop-color="#8B8B8B"/>
</linearGradient>
<linearGradient id="paint1_linear" x1="360.19" y1="335.256" x2="1400.72" y2="381.07" gradientUnits="userSpaceOnUse">
<stop stop-color="#BDBDBD"/>
<stop offset="0.488246" stop-color="#A2A2A2"/>
<stop offset="0.74097" stop-color="#E7E7E7"/>
<stop offset="1" stop-color="#8B8B8B"/>
</linearGradient>
<clipPath id="clip0">
<rect width="1440" height="1184" fill="white"/>
</clipPath>
</defs>
</svg>
