<svg width="100" height="27" viewBox="0 0 100 27" fill="none" xmlns="http://www.w3.org/2000/svg">
<path d="M27.2838 2.22087H34.8798V3.20487H36.2118V1.10487H31.8078V0.372864H30.3798V1.10487H25.9998V3.20487H27.2838V2.22087ZM28.5438 8.76087H33.6678V9.12087H28.5438V8.76087ZM28.5438 7.68087H33.6678V8.04087H28.5438V7.68087ZM28.5438 6.62487H33.6678V6.97286H28.5438V6.62487ZM35.1198 9.87687V5.88087H27.1638V9.87687H28.8918C28.0398 10.2009 26.7678 10.5009 25.6878 10.6569C25.9638 10.8969 26.3478 11.3169 26.5398 11.5809C27.9558 11.3649 29.6238 10.9089 30.5958 10.3569L29.8878 9.87687H32.2278L31.6038 10.3929C32.9718 10.7889 34.3638 11.2569 35.1678 11.5809L36.4038 10.7889C35.6598 10.5369 34.5558 10.1889 33.4518 9.87687H35.1198ZM31.4718 4.81286L31.5198 4.44087H33.1398L33.1038 4.81286H31.4718ZM28.8198 4.44087H30.3318L30.2838 4.81286H28.7718L28.8198 4.44087ZM30.4638 3.32487L30.4278 3.69686H28.9158L28.9638 3.32487H30.4638ZM33.1998 3.69686H31.6038L31.6398 3.32487H33.2358L33.1998 3.69686ZM34.5198 3.56486L34.6158 2.60487H27.7998L27.6798 3.56486H25.7958V4.57287H27.5478L27.4278 5.53286H34.3398L34.4358 4.57287H36.4278V3.56486H34.5198ZM39.8118 2.00486H41.1558V3.61286H39.8118V2.00486ZM42.5118 8.59287L41.3118 8.85687V7.34487H42.4878V6.14486H41.3118V4.80087H42.4038V0.828865H38.6238V4.80087H40.1118V9.10887L39.6558 9.20487V5.64086H38.5518V9.42087L38.0598 9.51687L38.2998 10.8009C39.5238 10.5249 41.1318 10.1529 42.6438 9.80487L42.5118 8.59287ZM47.2398 8.02887C46.9278 8.37687 46.5198 8.68887 46.0638 8.96487C45.9078 8.72487 45.7518 8.44887 45.6198 8.14887L47.2398 8.02887ZM44.3238 5.47286C44.8038 5.31686 45.2838 5.14886 45.7398 4.95686C45.9678 5.18487 46.2318 5.37687 46.5078 5.52087L46.3638 5.46087L45.4878 6.08486C45.9318 6.28887 46.4718 6.63687 46.8438 6.93687L45.2478 7.05686C45.1158 6.56486 45.0078 6.03686 44.9358 5.47286H44.3238ZM47.3358 2.80886C47.0358 3.08486 46.6638 3.32487 46.2318 3.54087C46.0998 3.36086 45.9798 3.14486 45.8598 2.91686L47.3358 2.80886ZM47.6238 7.99287L49.2318 7.87287L49.1478 6.76887L47.2998 6.90087L47.9358 6.38487C47.6598 6.16886 47.1918 5.88087 46.7478 5.64086C47.1438 5.82087 47.5878 5.92887 48.0678 5.95286C48.6318 5.97686 49.0518 5.61686 49.3398 4.46486C49.0518 4.33286 48.6198 4.04487 48.3678 3.78086C48.2838 4.34486 48.1638 4.62086 47.9478 4.60887C47.6238 4.59686 47.3238 4.48887 47.0358 4.32087C47.6238 3.98487 48.1398 3.60087 48.5478 3.16886L47.5878 2.78486L49.0518 2.67686L48.9798 1.58486L47.6838 1.68086L48.2838 1.20086C47.8998 0.912865 47.2398 0.540864 46.6758 0.336865L45.8118 0.984864C46.2438 1.16487 46.7478 1.45286 47.1198 1.71687L45.4278 1.84886C45.2958 1.39286 45.1758 0.900865 45.1038 0.372864H43.7958C43.8798 0.924865 43.9758 1.44087 44.1198 1.94486L42.5838 2.05287L42.6558 3.16886L44.4798 3.02486C44.6358 3.40886 44.8158 3.75687 45.0078 4.06886C44.2038 4.35686 43.3278 4.57287 42.4758 4.72886C42.6918 4.99287 43.0278 5.54487 43.1358 5.80886C43.2918 5.77287 43.4598 5.72486 43.6158 5.67686C43.6998 6.19287 43.7838 6.68487 43.9038 7.15287L42.5238 7.24887L42.6078 8.37687L44.2398 8.25687C44.4198 8.73687 44.6238 9.18087 44.8638 9.57687C43.9758 9.94887 42.9798 10.2369 41.9838 10.4409C42.2118 10.7169 42.5718 11.3049 42.7038 11.5929C43.6998 11.3289 44.6958 10.9809 45.6198 10.5369C46.2678 11.1849 47.0838 11.5689 48.0798 11.6169C48.7038 11.6409 49.1598 11.2449 49.4358 9.93687C49.1598 9.82887 48.6918 9.52887 48.4278 9.25287C48.3438 9.93687 48.2118 10.2609 47.9718 10.2489C47.5758 10.2249 47.2038 10.0809 46.8678 9.84087C47.5278 9.42087 48.1038 8.92887 48.5598 8.37687L47.6238 7.99287ZM61.6278 5.06486V3.58886H56.9118C57.0318 2.47286 57.0438 1.36886 57.0558 0.384865H55.4958C55.4838 1.36886 55.4958 2.46086 55.3758 3.58886H51.0078V5.06486H55.1358C54.6678 7.12887 53.5278 9.12087 50.7798 10.3449C51.1998 10.6449 51.6198 11.1609 51.8478 11.5569C54.3918 10.3329 55.6878 8.46087 56.3358 6.45687C57.2718 8.77287 58.6638 10.5249 60.8358 11.5449C61.0638 11.1369 61.5318 10.5009 61.8918 10.2009C59.6478 9.28887 58.1958 7.40487 57.4038 5.06486H61.6278ZM70.2078 1.83686C70.0638 1.70486 69.8598 1.54887 69.6318 1.38087C69.8598 1.17686 70.0638 0.948865 70.2318 0.720865L69.3078 0.444865C69.1878 0.600864 69.0438 0.756865 68.8878 0.900865C68.6478 0.756865 68.4078 0.624865 68.1918 0.516865L67.5318 1.06886C67.7358 1.17686 67.9518 1.29686 68.1678 1.42886C67.8678 1.62086 67.5558 1.77687 67.2318 1.90886C67.4598 2.06486 67.8318 2.38886 67.9878 2.55686C68.2998 2.38886 68.6238 2.18486 68.9478 1.95686C69.1758 2.13686 69.3678 2.30486 69.5118 2.44886L70.2078 1.83686ZM71.2038 6.14486L70.9038 6.21687H65.8038V7.21287H69.6678C69.4278 7.39286 69.1638 7.56087 68.9118 7.70487H68.2038V8.25687H63.6798V9.37287H68.2038V10.2009C68.2038 10.3569 68.1438 10.3929 67.9518 10.4049C67.7598 10.4049 67.0518 10.4049 66.4638 10.3809C66.6438 10.7169 66.8478 11.2089 66.9198 11.5809C67.8198 11.5809 68.4798 11.5809 68.9598 11.3889C69.4638 11.2089 69.5958 10.9089 69.5958 10.2489V9.37287H74.1318V8.25687H69.9198C70.6518 7.83687 71.3958 7.34487 71.9958 6.86486L71.2038 6.14486ZM73.2438 4.66886C73.3638 3.55287 73.4598 2.02886 73.5198 0.756865H70.4958V1.65687H72.1278L72.1038 2.06486H70.5438V2.95286H72.0438L72.0198 3.36086H70.5078V4.24886H71.9358L71.8998 4.66886H65.9118L65.8878 4.24886H67.3878V4.14086C67.6038 4.29686 67.8558 4.52486 67.9878 4.65687C68.3118 4.47687 68.6598 4.26087 68.9958 4.00886C69.2478 4.20087 69.4638 4.38087 69.6078 4.53687L70.3278 3.93687C70.1598 3.78086 69.9318 3.60087 69.6798 3.42086C69.9198 3.20487 70.1238 2.96486 70.2918 2.72486L69.3678 2.44886C69.2478 2.61686 69.0918 2.78486 68.9238 2.94087C68.6838 2.79686 68.4438 2.66487 68.2278 2.55686L67.5678 3.09687C67.7718 3.21687 67.9998 3.34886 68.2158 3.48087C67.9518 3.64887 67.6758 3.80486 67.3878 3.94886V3.36086H65.8398L65.8158 2.95286H67.3518V2.06486H65.7678L65.7558 1.78886C66.3078 1.64486 66.9438 1.44087 67.4478 1.20086L66.7878 0.432864C66.3678 0.612865 65.7198 0.876864 65.1558 1.05686L64.3758 0.900865L64.6038 4.66886H63.6798V7.12887H65.0358V5.70086H72.7398V7.12887H74.1558V4.66886H73.2438ZM3.23576 19.0569C3.12776 20.2449 2.92376 21.3009 2.63576 22.2009C2.38376 21.9849 2.13176 21.7689 1.89176 21.5649C2.05976 20.7729 2.23976 19.9209 2.40776 19.0569H3.23576ZM4.62776 24.2529C4.41176 23.9409 4.07576 23.5689 3.70376 23.1849C4.20776 21.7929 4.48376 20.0409 4.59176 17.8209L3.77576 17.7369L3.54776 17.7609H2.65976C2.80376 16.9809 2.93576 16.2129 3.05576 15.5049L1.72376 15.3849C1.61576 16.1169 1.49576 16.9329 1.35176 17.7609H0.295757V19.0569H1.12376C0.871757 20.3769 0.619757 21.6489 0.379757 22.5849L1.48376 23.3289L1.57976 22.9449C1.75976 23.1129 1.95176 23.2809 2.13176 23.4609C1.67576 24.3489 1.08776 25.0209 0.355757 25.4409C0.631757 25.7049 0.991757 26.2089 1.18376 26.5569C1.97576 26.0289 2.61176 25.3449 3.11576 24.4809C3.37976 24.7809 3.61976 25.0809 3.78776 25.3329L4.62776 24.2529ZM6.83576 19.4769H8.95976V20.1249H6.83576V19.4769ZM8.95976 17.7969V18.4329H6.83576V17.7969H8.95976ZM11.4198 23.1969V21.9969H8.58776V21.2649H10.3278V17.7969H11.3718V16.5969H10.3278V15.3729H8.95976V16.5969H6.83576V15.3729H5.53976V16.5969H4.42376V17.7969H5.53976V21.2649H7.19576V21.9969H4.47176V23.1969H6.49976C5.85176 24.0489 4.89176 24.8169 3.91976 25.2369C4.20776 25.5129 4.65176 26.0289 4.86776 26.3529C5.73176 25.8849 6.54776 25.1169 7.19576 24.2529V26.5809H8.58776V24.1809C9.19976 25.0089 9.94376 25.7769 10.6518 26.2689C10.8798 25.9209 11.3238 25.4169 11.6358 25.1529C10.8078 24.7209 9.88376 23.9769 9.25976 23.1969H11.4198ZM22.6638 17.7969H22.1358V17.2809H22.6638V17.7969ZM22.6638 19.1889H22.1358V18.6609H22.6638V19.1889ZM19.5678 18.6609H20.0838V19.1889H19.5678V18.6609ZM19.5678 17.2809H20.0838V17.7969H19.5678V17.2809ZM21.3678 18.6609V19.1889H20.8518V18.6609H21.3678ZM20.8518 17.7969V17.2809H21.3678V17.7969H20.8518ZM23.7678 16.3809H22.3758V15.3849H21.3678V16.3809H20.8518V15.3849H19.8558V16.3809H18.5238V20.1009H23.7678V16.3809ZM17.2158 20.6049H14.1318V20.1249H17.2158V20.6049ZM15.0198 23.5809V23.0289H16.3038V23.5809H15.0198ZM16.3038 22.0929H15.0198V21.5649H16.3038V22.0929ZM14.8158 16.7529H16.4958V17.2449H15.2358V19.1529H14.8158V16.7529ZM15.9918 19.1529V18.0489H16.4958V19.1529H15.9918ZM18.2718 21.0249V21.4569H23.9958V20.5089H18.2838V19.1529H17.5638V15.7449H13.7958V19.1529H13.1118V21.0249H13.8198V26.5809H15.0198V24.5409H16.3038V25.3689C16.3038 25.4649 16.2798 25.5009 16.1718 25.5129C16.0638 25.5129 15.7878 25.5129 15.5118 25.5009C15.6438 25.8009 15.7878 26.2569 15.8358 26.5809C16.3998 26.5809 16.8078 26.5689 17.1198 26.3769C17.4438 26.1969 17.5158 25.8969 17.5158 25.3809V21.0249H18.2718ZM21.9798 24.1809C21.8718 24.5649 21.6678 25.0569 21.4998 25.4289H20.6838C20.5998 25.0689 20.3838 24.5649 20.1438 24.1809H21.9798ZM19.8438 22.6809H22.3998V23.3409H19.8438V22.6809ZM22.5678 25.4289C22.7598 25.1049 22.9758 24.7329 23.1918 24.3489L22.4718 24.1809H23.5998V21.8409H18.6918V24.1809H19.8438L19.1118 24.4449C19.2918 24.7329 19.4478 25.1049 19.5558 25.4289H18.0198V26.4369H24.1278V25.4289H22.5678ZM33.4998 20.9769H34.3278L34.2318 21.0249C34.3638 21.1449 34.5078 21.2769 34.6518 21.4209L33.4998 21.4329V20.9769ZM30.7758 20.1849V19.6929H32.1198V20.1849H30.7758ZM30.7758 18.4569H32.1198V18.9489H30.7758V18.4569ZM34.8678 18.4569V18.9489H33.4998V18.4569H34.8678ZM34.8678 20.1849H33.4998V19.6929H34.8678V20.1849ZM35.1798 22.4049L35.5398 22.3929C35.6478 22.5369 35.7558 22.6689 35.8278 22.7889L36.8478 22.2249C36.5958 21.8649 36.1518 21.3969 35.7078 20.9769H36.2358V17.6769H33.4998V17.2209H36.5838V16.1889H33.4998V15.4569H32.1198V16.1889H29.1918L29.3238 15.8409L27.9678 15.4089C27.3558 17.1249 26.3238 18.8289 25.2438 19.9089C25.4838 20.2449 25.8678 21.0369 25.9998 21.3849C26.2758 21.0969 26.5518 20.7729 26.8158 20.4249V26.5569H28.1718V18.3129C28.4718 17.7729 28.7478 17.2089 28.9878 16.6569V17.2209H32.1198V17.6769H29.4678V20.9769H32.1198V21.4569C30.9318 21.4689 29.8398 21.4809 28.9878 21.4809L29.1078 22.5489C30.3798 22.5249 32.0718 22.4889 33.8118 22.4409V22.9569H28.7358V24.0369H30.4038L29.7918 24.4209C30.3198 24.9129 30.9198 25.6089 31.1958 26.0649L32.3238 25.3449C32.0718 24.9729 31.5918 24.4689 31.1358 24.0369H33.8118V25.2369C33.8118 25.3689 33.7518 25.4169 33.5718 25.4289C33.4038 25.4289 32.7918 25.4289 32.2398 25.4049C32.4078 25.7529 32.5758 26.2329 32.6358 26.5929C33.4998 26.5929 34.1358 26.5929 34.5918 26.4129C35.0598 26.2329 35.1798 25.9089 35.1798 25.2729V24.0369H36.7038V22.9569H35.1798V22.4049ZM46.1838 19.6809H44.0958L44.4198 19.6089C44.3598 19.3569 44.2278 19.0089 44.0718 18.7089H46.2678C46.1598 19.0089 46.0278 19.3449 45.9078 19.6089L46.1838 19.6809ZM42.7158 18.7449C42.8718 19.0209 43.0158 19.3809 43.0878 19.6809H41.5038V20.6889H44.4798V21.2289H41.9718V22.2129H44.4798V22.7769H41.4918V23.8089H44.4798V24.6129H45.8958V23.8089H49.0158V22.7769H45.8958V22.2129H48.5358V21.2289H45.8958V20.6889H48.9918V19.6809H47.2038C47.3718 19.4289 47.5518 19.1169 47.7558 18.7809L47.4558 18.7089H49.1118V17.6769H45.8958V17.0649H48.3798V16.0809H45.8958V15.3729H44.4798V16.0809H42.1158V17.0649H44.4798V17.6769H41.3118V18.7089H42.8838L42.7158 18.7449ZM41.2158 17.5809C40.8318 17.0049 40.0038 16.2129 39.3318 15.6729L38.2398 16.4889C38.9118 17.0649 39.7038 17.8929 40.0398 18.4809L41.2158 17.5809ZM40.8918 20.0289H38.1918V21.3369H39.5358V23.9529C39.0558 24.3609 38.5158 24.7569 38.0478 25.0569L38.7198 26.4729C39.3318 25.9569 39.8238 25.5009 40.3038 25.0329C41.0238 25.9569 41.9838 26.3049 43.4118 26.3649C44.8758 26.4249 47.4198 26.4009 48.9078 26.3289C48.9798 25.9329 49.1838 25.2729 49.3518 24.9369C47.6958 25.0689 44.8638 25.1049 43.4238 25.0449C42.1998 24.9969 41.3598 24.6609 40.8918 23.8569V20.0289ZM54.9318 15.7449H51.3078V16.8249H54.9318V15.7449ZM55.3878 17.3529H50.6958V18.4809H55.3878V17.3529ZM54.9558 20.6649H51.2598V21.7329H54.9558V20.6649ZM59.5398 21.8049C59.2518 22.4169 58.8798 22.9569 58.4118 23.4249C57.9318 22.9449 57.5358 22.4049 57.2478 21.8049H59.5398ZM53.7078 24.8289H52.4358V23.4489H53.7078V24.8289ZM60.4398 20.4609L60.1998 20.5209H55.9758C57.2238 19.6689 57.4638 18.3009 57.4638 17.1729V16.9689H58.8078V18.4209C58.8078 19.6089 59.0838 19.9809 60.0438 19.9809H60.7398C61.5438 19.9809 61.8558 19.5609 61.9758 18.0729C61.6278 17.9769 61.0758 17.7729 60.8118 17.5689C60.7998 18.6129 60.7518 18.7689 60.5958 18.7689H60.2958C60.1638 18.7689 60.1398 18.7329 60.1398 18.3969V15.7089H56.1198V17.1369C56.1198 17.9409 55.9878 18.8889 54.9558 19.5969V19.0209H51.2598V20.1129H54.9558V19.6569C55.2438 19.8489 55.7478 20.2809 55.9518 20.5209H55.5438V21.8049H57.2118L55.9878 22.2009C56.3598 22.9809 56.8158 23.6769 57.3678 24.2769C56.6598 24.7449 55.8438 25.0809 54.9438 25.3089V22.3209H51.2238V26.4129H52.4358V25.9449H54.9438V25.3329C55.2078 25.6569 55.5438 26.2209 55.6878 26.5689C56.7078 26.2569 57.6318 25.8249 58.4358 25.2609C59.1918 25.8249 60.0678 26.2689 61.0758 26.5689C61.2798 26.1969 61.6878 25.6329 61.9998 25.3329C61.0758 25.1049 60.2358 24.7569 59.5278 24.3009C60.3558 23.4009 60.9918 22.2609 61.3758 20.8089L60.4398 20.4609ZM67.7478 15.7449H63.9438V16.8249H67.7478V15.7449ZM68.2038 17.3529H63.2958V18.4809H68.2038V17.3529ZM66.4398 23.4489V24.8289H65.0718V23.4489H66.4398ZM67.6878 22.3209H63.8358V26.4129H65.0718V25.9449H67.6878V22.3209ZM63.8718 21.7329H67.7238V20.6649H63.8718V21.7329ZM63.8718 20.1129H67.7238V19.0209H63.8718V20.1129ZM74.6118 19.3809H72.1038V15.4209H70.6638V19.3809H68.1558V20.7969H70.6638V26.5809H72.1038V20.7969H74.6118V19.3809ZM82.8078 16.8369C82.6638 16.7049 82.4598 16.5489 82.2318 16.3809C82.4598 16.1769 82.6638 15.9489 82.8318 15.7209L81.9078 15.4449C81.7878 15.6009 81.6438 15.7569 81.4878 15.9009C81.2478 15.7569 81.0078 15.6249 80.7918 15.5169L80.1318 16.0689C80.3358 16.1769 80.5518 16.2969 80.7678 16.4289C80.4678 16.6209 80.1558 16.7769 79.8318 16.9089C80.0598 17.0649 80.4318 17.3889 80.5878 17.5569C80.8998 17.3889 81.2238 17.1849 81.5478 16.9569C81.7758 17.1369 81.9678 17.3049 82.1118 17.4489L82.8078 16.8369ZM83.8038 21.1449L83.5038 21.2169H78.4038V22.2129H82.2678C82.0278 22.3929 81.7638 22.5609 81.5118 22.7049H80.8038V23.2569H76.2798V24.3729H80.8038V25.2009C80.8038 25.3569 80.7438 25.3929 80.5518 25.4049C80.3598 25.4049 79.6518 25.4049 79.0638 25.3809C79.2438 25.7169 79.4478 26.2089 79.5198 26.5809C80.4198 26.5809 81.0798 26.5809 81.5598 26.3889C82.0638 26.2089 82.1958 25.9089 82.1958 25.2489V24.3729H86.7318V23.2569H82.5198C83.2518 22.8369 83.9958 22.3449 84.5958 21.8649L83.8038 21.1449ZM85.8438 19.6689C85.9638 18.5529 86.0598 17.0289 86.1198 15.7569H83.0958V16.6569H84.7278L84.7038 17.0649H83.1438V17.9529H84.6438L84.6198 18.3609H83.1078V19.2489H84.5358L84.4998 19.6689H78.5118L78.4878 19.2489H79.9878V19.1409C80.2038 19.2969 80.4558 19.5249 80.5878 19.6569C80.9118 19.4769 81.2598 19.2609 81.5958 19.0089C81.8478 19.2009 82.0638 19.3809 82.2078 19.5369L82.9278 18.9369C82.7598 18.7809 82.5318 18.6009 82.2798 18.4209C82.5198 18.2049 82.7238 17.9649 82.8918 17.7249L81.9678 17.4489C81.8478 17.6169 81.6918 17.7849 81.5238 17.9409C81.2838 17.7969 81.0438 17.6649 80.8278 17.5569L80.1678 18.0969C80.3718 18.2169 80.5998 18.3489 80.8158 18.4809C80.5518 18.6489 80.2758 18.8049 79.9878 18.9489V18.3609H78.4398L78.4158 17.9529H79.9518V17.0649H78.3678L78.3558 16.7889C78.9078 16.6449 79.5438 16.4409 80.0478 16.2009L79.3878 15.4329C78.9678 15.6129 78.3198 15.8769 77.7558 16.0569L76.9758 15.9009L77.2038 19.6689H76.2798V22.1289H77.6358V20.7009H85.3398V22.1289H86.7558V19.6689H85.8438ZM91.0758 23.3409C90.4518 24.1089 89.4078 24.9249 88.4358 25.4289C88.7958 25.6569 89.4198 26.1369 89.7198 26.4129C90.6558 25.8129 91.8078 24.8289 92.5518 23.8809L91.0758 23.3409ZM99.7518 22.7169C99.1638 21.9009 97.9158 20.7129 96.9438 19.9089L95.7678 20.6529C96.0438 20.8929 96.3438 21.1689 96.6438 21.4569C95.5398 21.4929 94.4358 21.5169 93.3798 21.5289C94.6758 20.5449 96.0678 19.3569 97.1838 18.2049L95.8158 17.4609C95.1078 18.2769 94.1478 19.2009 93.1638 20.0409C92.8998 19.8129 92.5758 19.5729 92.2398 19.3329C92.8758 18.7569 93.5838 18.0249 94.1838 17.3169L94.1478 17.2929C95.8158 17.1609 97.4358 16.9689 98.7798 16.6809L97.7718 15.4809C95.6358 15.9129 92.1198 16.1649 89.0358 16.2249C89.1798 16.5609 89.3478 17.1369 89.3838 17.5089C90.2838 17.4969 91.2438 17.4729 92.2038 17.4249C91.8798 17.8329 91.4958 18.2409 91.1478 18.6009C90.9318 18.4689 90.7398 18.3489 90.5478 18.2409L89.5638 19.1529C90.3798 19.6569 91.3518 20.3769 92.0118 20.9769C91.7358 21.1929 91.4598 21.3969 91.1958 21.5769C90.2718 21.5889 89.4198 21.6009 88.6878 21.6129L88.8078 23.0409C90.0558 23.0049 91.6278 22.9689 93.3078 22.9089V26.5809H94.8318V22.8609C95.8278 22.8249 96.8358 22.7769 97.8438 22.7409C98.0958 23.0409 98.3238 23.3289 98.4798 23.5809L99.7518 22.7169ZM95.5278 24.0849C96.4878 24.7569 97.7238 25.7409 98.2758 26.3889L99.5598 25.4769C98.9358 24.8169 97.6638 23.8809 96.7158 23.2689L95.5278 24.0849Z" fill="white"/>
</svg>
